<svg xmlns="http://www.w3.org/2000/svg" xml:space="preserve" viewBox="0 0 381 637"><path d="m300.3 0 .2.3.2.1h.4l.4.2.3.3.2.5.1.8h-.2l-.6.4.7.4.2.1-.5.5-.6.4-.4.4.2.8v.5h-.6l.2.1.2.1.2.2v.5l-1.3 1.3-.2.4.2.8.4.7.2.6-.4.5h-.3l-.2-.2-.2-.2-.3-.2-.6-.1-.4.1-.9.1-.5-.1-.5-.4.2-.6v-.6l-.1-.5-.1-.4.5.4.2-.5-.1-.9-.2-.8.5-.2.3-.9V4l-.4-.5V3l.5-.3.6-.6.4-.7V.8l.3-.7h.4l.3.5.1.9-.1.7-.3.4-.4.4-.3.5.1.2.4-.2.4-.4.3-.3.7-2.3zm-8.4 7.1h.4l.3 1.1.4-.7.6-.2 1.3.1v.9l-.1.3-.2.1v.5l.1.1.1.2.1.1-.3.8v.6l.5 1.2-.2.7-.2.7-1-1.2-.5-.4-.6-.1.4.5.4.8.7 1.8-.4.3-.4.1-.5-.1-.4-.4.1.7.4.4.5.2h.5l-.1.2v.1l-.2.1.5.6v.8l-.4.6-.6.2.5 1.1.1.5.1.7-.1.8-.2.2-.7-.3-.8.1-.4-.2-.2-.5h-.1l-.2.3v.4l.3.4v.4l-1-.2-.7-.8-.4-1.4-.4-5.9.3-1.3 1-.2v.1l-.1.8.3.7.5.4.4-.2-.1-.3-.4-1.7-.1-.9.1-.4.3-.9-.1-.2-.2-.2v-.6l.1-.7.1-.5.3-.7zm-7.2 7.3.7-1.4.3 1.3v.5l-.1.4.1.5v.4l-.2.3-.3.1.2 1.5-.3.7-.4.5-.4.8h.6l-.1.3-.1.1h-.4l.2.1.1.1.1.1.2.1-.6 2.1.3-.1.3-.2.3-.2.2-.4.2.4-.4 1-.1.4.1.4v.5l-.6.3-.7 2.2-.6.5v.5h.4l.4-.1.4-.2.3-.3v-1.1l.8-.6 2-.4-1.5-1.1-.4-.6.3-.5.4-.3.3.2.1 1 .3-.4.6-1.1.1-.4.3-.2.6.4.4.6-.2.7.4.2.3.3.2.5.1.7-.1.3-.1.1.4.4-.4.3-.7-.4-.3.3-.2.4-.3.3-.3.2.1.2.4-.1.7-.4-.1.1-.3.3v.5l1.1-.6.4.3-.2 1.3h.2l.1-.6h.1l.1.1.3-.3.1-.4.1-.5.1-.5.3-.5.1.2.1.2v.5l.3-1 .5-.7.6-.4h.6l-.4 1.1-2.2 2.6-.2.5v.5l.2.1.2-.3.3-.6.2-.2.4-.3h.4l.2.7v.4l-.1.6-.1.6-.3.3-2.4.3-.5.2.6.6 1.6.4.8.6-1.5 1.5-.4.2-.1.1v.7l.1.3.1.1.2-.3h.2l.2.2.4.1.2.2-1.2 1.2-.6.3-.5-.2-.3-.8-.2-.5h-.3l-.2.4v.4l.2.4.2.2v.3h-.3l-.3.1-.5.3v.4h1.3l-.2.4-.1.4-.3.9.6-.8.3-.3.4-.1-.9 2.1-.2.9.5-.7.7-.3.4.3-.4 1.1 1.1.9v.4h-.9v.5h.2v.4l-.5-.4-.3.3-.3.4h-.6l.4.5-.1.5-.2.3-.2.1h-.3v.4l.3.1.6.4-.5.7.3.8.6.6h.3l-.2.9-.5.5-.6.1-.5-.2.1.8.7 1.8-.3.7h-.4l-1-.7.1 1.3-.1 1.3-.2 1.2-.4.9-.1-.3-.1-.1.3.7.1.7-.1.7-.3.8.3.5.1.5-.1.5-.3.3-.1-.3-.5-1-.2.6-.2-.1-.1-.5.3-.6v-.4l-.5-.4-1 .2-.5-.3-.4-.8.6-.8-.2-1 .3-.5.3-.3.3-.1.4.1V56l-.6-.7-.3-.2v-.4h.8l-.2-1.1.3-1 .5-1.1.5-3 .5-1.2.3-1.2-.1-1.7-.2-.2-.2.1-.2-.1-.1-.6v-.2l.1-.3.5-1.3h-.3l-.5.3-.1.2h-.4l-.1-.2.1-.5.4-1.6.2-.6.3-.5.3-.3V38l-.6-.1-.4.7-.9 2-.4-1.4-.4-1.1-.6-.7-1-.2v.5l.6.3.5.5.4.8.4.9-.2.9-.6-.6-.3-.2h-.4v1.1l-.2.8-.3.2-.2-.9-.4.4-.1.7-.1.7-.3.5h-.3l-1.2-.9-.1-.1-.7-.8-.1.1-.2-.6v-.3l.2-.4.4-.4.9-.2.4-.2-.4-.3-.8-1.3-.1.5-.2.9-.4.6-.4.1-.2-.6-.2-.5-.5.1-.9.6-.7.1-.3-.1-.2-.2v-.3l-.1-.3-.2-.1-.6-.1-.3-.4-.3-1.6-.3-1.2.1-.4.5-.6.4-.4.6-.3.6-.2.5.1.4.4.4.5.4.4h.5l-.2-.9 1.1.4v-.4h-.2v-.4l1.5-.2.4.5v1.9l.2-.1.3-.2.1-.2-.1-.3-.2-.7-.1-.3h.6l-.1-.3-.1-.6.7-.3.8.3.7.8.3 1.4.4-.7.4-.5-.9-.9.6-1.7.2.3.2.1h.5l-.4-.7.6-.2 1.5.1-.7-.5-.9-.2-.7-.5-.2-1.4-.6.7-.3.2-.4-.1-.3-.5-.1-.6.1-.6.3-.5v-.4h-1l-.4-.1-.3-.4.1-.8-.1-1.1-.3-2-.4 1.2-.3.7-.3.3-.5-.2-.1-.5.2-.6.4-.4h-.6l-.5.2h-.5l-.5-.6-.3.7-.4.2-1.1-.1-.1-.3.2-.7.3-.7.3-.3.8.1.2-.1.2-.4v-.9l.1-.4.3-.6.4-.5.4-.1.4.7.4 1.3 1 1.1 1.2.4 1-.6-.4-.3-.5-.1h-.8l-.2-.2-.3-.5-.4-.5-.5-.1.3-.4.4-1.1.2-.2.4-.1L282 17l-.3-.4-.1-.1.3-.5.1-.3-.1-.2-.1-.3.8-.4.8.1.9.5.7.7.1-.3.1-.2-.6-.6zm12-.5h3.6l.3.2v.8l.1.3h.3l.2-.2.2-.2.1-.1.5.1.3.4.1.6-.2.7-.8.7-.9-.3-.9-.5h-.9v.6l.2.2.1.2.1.2.1.2-.9-.2-.7-1-1-2.2v-.5zm.6 15.3h.2l.1.3-.2.4-.4.5-.5.8-.8 1-1.2.4-.6-.4.2-.3.2-.2.1-.3.2-.5.3-.4.3-.2h.4l.3-.2.2-.3 1.1-.1.3-.1zm-5.2 12.5.2-.1.1.3.1.6.1.6h.2l.4-.4v.4l-.1.9-.2.7-.2.5-.2 1.3-.3.2-.9-.7-.3-.4.1-2-.5-.8v-.7l.6-.1.6.3.2-.1zM261 43.6l.7-.1.4.1.1.5v1.1l-.5.7-.7-.3-.6-.5-.2-.4.1-.5.2-.3zm23.6 2.8.2-.3h.2v.6l-.2.8v.3l.2-.3h.2l.1.5-.1.6-.2.6-.3 1-.2.4h-.2v-.4l.1-.7v-1 .4l-.1.4-.5.8-.4.4-.1-.3.4-.6.1-.7.1-.9.3-.6-.1-.4-.2-.3.1-.3zm-9.2 34.2.7-.3h.6v.4h-.1l-.1.1-.4.1-.1.2-.1.5h.4v.5l-.5.3-.5.6-.4.2-.2-.9.2-1zm-42.1 12.3.5-.4.6.4v.3l-.1.1h-.1l-.1.1-.4.5v.3l.1.5h-.8v.3l2.4.8.4.3.6 1.6.2.3.4.2.3.1.3.1.3.4v.4h-.6l-.4.3-.7 1v-.5l.1-.4.1-.4.2-.4-1.5-1.5-.8-.5-.8-.1v.5l.1.2.3.6-.4-.5-.2.5-.2.2-.2-.1-.3-.2-.2-.2-.2-.3-.4-1.3-.1-.3-.1-.3-.3-.5-.3-.2h-.3l-.2-.1-.1-.6h.7l1 .2.5-.2zm17.2 2.7.4-.5.2.2.3 1.3.1.6-1.5.1-.6.3-.2.7-.4.3-.6 1.4-.2.4-.3.2v-1.3h-.5l-1.4 1.6.1-.6.1-.2v-.4l-.6.4h-.2l-.2-.3-1.2 1.6-.6.7-.5-.2-.1.8-.2.4-.2-.1v-.7l.2-.9.2-.3.3-.1.4-.3.3-.4.5-.9.3-.4.4-.2h.3l.2-.2.1-.8-.2-.2-.5-.7h.7l1.2-.8.8-.1v.5l-.5.3-.5.4-.8 1 .2.1.1.1.1.2.4-.4 1-.2.8-.9.5-.1h.5l.5-.1zm-11.3 3.9.3-.3.5.1v.4h-.2v.4l.4-.1.4.1.3.3.2.6-.2.5-.7 1.1-.1.3v.9l.1.8.2.5.5.1v.4l-.9.4-.5.1-.2-.2-.1-.8-.3-.6-.4-.4-.5-.1v-1.3l.4.3h.3l.3-.2.4-.1v-.2l-.2-1v-.4l-.1-.8zm-9.7 3.4.9-.4h.8v.1l.1.2.1.3.2.2.2.1h.2l1.3-.3h.4l.5.3v.4h-.2l-.1.1-.5.8.1 1v.8l-.9.4-1-.1-.9-.3-.8-.6-.7-1-.2-1.1zM243 105l1.2-.4.4.1v.4l-.1.2-.1.2h.9l.4.1.3.3-.4-.1-.3.3-.1.5.4.5.4.1.4-.1.7-.4v.3l-.1.1h-.1l-.1.1-.2.7.2.4.9.6-.6.6-1.3.2-.7.4-.1-1.4-.5-.7-.6-.1-.5.4.1.9-.7.2-.5-.5.6-1.1.5-.2.5-.1.4-.2.1-.7-.2-.4-1-1.1zm-19 .7 1.5-.3 1.5.1.8.3 1.1 1.1h.4l.4-.2h.4l.3.2.5.7.3.2-.5.4-.2.1.6.7 1.8 1-.2.1-.1.1-.1.2.1.1.1.2.1.1-1.8.8-.3-.1-.3 1-.6.9-.7.6-.5.2.5.4.6.2 1.2.2.5-.4.5-.7.5-.4 1.2 1.1.4-.1.4-.4.4-.2.5.3.3.6.3.3.5-.4-.1.3-.1.7-.1.3.6.1.5-.4.5-.4.6-.2.7-.1.3.1.2.4-.2.6-1.3.9-.5.5.4.8.4.5.5.2.6-.2-.4-1.3v-.5l.6-.1 1-.7.5-.1.4.2.2.5v1.6l-.2.4-.6.3-1.2.3-.4.3-.7 1.4-.5.4-.5-.1-2.4-1-.4-.3-.3-.5-1.1-2.4-.2-.4-.4.1-.4.6-.5.5-.6-.1-.3.3h-.3l-.3-.2-.4-.1.4.9-1-.1-.4.2-.1.7-.8-.3-1.9.3-.8-.8-.3-1.3.1-1.3.4-1.1.5-.8v-.4l-.2-.4-.2-.4-.1-.4-.1-.4-.4.2-.2.3v.3l.2.4v.4l-.3-.2-.3-.1-.2.1-.3.2.3.3.1.4v.5l.1.1.2.8-.3.5-.7.8v.4l-1-.4-.9-1.5-.4-2 .5-1.8.2-.4-.2-2.7.8-1.8zm-2.2 13h.4l.5.3 1.1 1.1.7.2.6.4 1.6 2.6-.4.4v.5h.4l.2.2.5.6v.4l-.6.1-.7.3-.7.5-.4.8.9-.1 1.8-.9.9.1-.8 1.2-1.5.5h-2.9l-.2-.3-.6-1.5-.1-.5-.3-.3-.4-.3-.3-.3-.6-1.2v-.3l.1-.3.1-.3-.2-.4-.2-.1-.4.4-.1-.1-.3-.3-.3.1h-.2l-.1-.6.5-1.2.1-.2.7-.7zm10.9 5.6 1.4-.3 1.4.1.7.3-.1.7-.9.6-.2.2-.1.5.2.4.1.4-.4.3.3 1 .1.8-.2.6-.7.5-1.5-1.6v-.4l.4-.4-.3-.9-1-1.5.4.3.4.1.4-.1.4-.3v-.4h-2.1v-.4zm-12.2 9.8.5-.3.5.1.1.3.1.6.1.5.2.2h1l2-.6 1.2-.1 1.6 1.2h1l2-.4 1.1.5-.2 1.1-.6 1.2-.1.9-.4.5-.5 1.1-.3.5-.8.8-.2.4-.4 1.2v1l.3.7.7.4h.4l.4-.2.3-.1.2.3.1.7-.1.5-.3.3-.3.1-.3 2.1-1.3 2.7-1.7 2.4-1.2 1.4-1.3.8-2.7 1-1.1.7-1.7 1.7-.3.6-.2 1-.6 1-1.4 1.5-6.8 5.6-2.3 1.2-.6.6-.3.6-.3 1.2-.2.4-.3.3-.8.4-1 .2-2 1.4-.3.2-.2.4-.1.5v.6l-.5-.3-.1-.1.2-.4-.4-.2-.8-.1-.9-.5-.1.2.1.5.3.5.5.4 1 .1.5.2.2.3.7 1.1-.6 1.1-.1.6.1.7h-.5l-.9-.4h-.5l-.3.2-.5.8-.3.2h-.9l-1.8-.9-.9-.2-2.5.7-.7-.5-1-1.4-.6-.5-.6-.2 1.7 2.5 1 .8 1.2.3 1.3-.6.6-.1.6.5.5.7.7.5h.5l-.2-1 2 1.4 1.1.3 1.8-1.4 1 .2.6.7-.4.8 1 .3 1.2-.5 1.1-1.1.9-1.3.5-.5.4.1.2.6-.1.9-.2.5-4.2 5.6-.7.6-.8 1.2-.4.4-.6.1-.5-.2-.1-.6.4-.9-.8-.8-1.1.4-2.4 2.2-.4.2-.8.1-2 .6-.6-.1h-.5l-.2.7-.2.8-.5.4-.4.2-2 2.1-.3.4-.3.6-.2.9h.1l.4-.3.9-.4.5-.5.4-.6.3-.6.4-.5 1.4-.9 1.2-1.3 1.3-.7h.3l.4.2.4.5 1.6.4h.7l.5-.4.4-.4 1.3-.9.5-.1.1.7-.6 1.2-.9 1.1-.9.7-1.1 1.8.1.3.1.2.1.1.1.1-1.4.1-.6.4-.5.7.3.5-.2.1-.7-.2h-1.7v.4h.9l.4.1.4.3-.6 1.3-.4.6-.4.5 1.1.3h.6l.7-.3.5-.6.2-.4v-.2l.7-.1.3-.2.6-.9.4-.4.5-.3.4-.1.6-.3-.4-.6-1.2-1.1.9.1 2.8-.5 3 .3.9-.3 4.7-3.6 1.9-.4-.2.6-.2.3-.2.3.4.3h.4l.4-.2.5-.1-.6-1.5 1.1.4.6.1.6-.1.4-.3.5-.6.3-.7-.2-.7.3-.6.3-.1.3.2.4.1.4-.2.8-.5.4-.1 3.8.2 2.3 1.5 4.1 1.4h1.4l1.2-.4 1.9-1.4.5-.2h4.9l.2.1.3.6.3.1.3-.1.3-.2h.2l.3.4 1.1-.5 2.7.9 1-.1.5.8.3-.1.2-.5.4-.3.6.1 1.5.8.2-.4.2.1.3.3.3.1.4-.2.5-.5.3-.1.6.4.4.1.2-.3.1-.3.2-.3.3-.2.2-.1.7.1 1.4.9.6.2.8-.2 1.8-1.4.5-.1 3.4.1v.2l.2.5.3.5.3.3h.4l.5-.4h.4l.2.2.4.8 2.6 3 .3 1 .1 1.1.2 1 .5.9v.4l-.2.7.3.6.9 1-.4.1-.2.4v.5l.3.2.4.2-.2.4-.7.6-1.3 1.7-.5 1-.1.8-3.3 3.1-.8 1.3-2 5.3-.7 3-.2 1.2.1 1.1.6.5.1.5-.5 1-2.8 4.5-.9 2.1-.4 2.1.1.5.2.4.2.4v.7l-.1.3-.6.7-.1.3-.2 1-.5.6-1.1.9-.8 1.2-.7 1.3-.5.6-1.7 1.1-.5.5-.6.7-.3.6-.1.3-.3 2.5-.4.7-.4.6-.3.8v.4l.2.8v.3l-.2.4-.6.6-.3 1-.5.6-2.9 2.1-.5 1.2-.6.5-1.2.6-.3.4-.6 1.5-.3.1-.2-.1-.2-.2-.4-.1-1.7.2-7.3 1.1h-.2l-1.2.5-1.1.8-3.2 3.3-1.3.5-1.3-.5.4.5.6.2h1.3l.6-.2 1.3-.8 1.2-.3 6.2-3.2.3-.4.3-.5.7-.4.7-.1.5.4.6.6 1.1.1.4.7.1 1.1-.2 1-.4.8-.5.6h.8l.1.2.1.8.1.2.4.2.3.1.2.2.2.4 2.8.2.7.4 1.1 1 .2.1 1.1 1v.3l-1.7 1.6-.6 1.1-.7.4-1.5.3-2 1.4-.7.2-.8-.1-1.9-1h-1.5l-.7.2-.3.4-.2.5-1.7 1.2-1.7 2-.5.3-.6.2-.3.6-.4 1.9-.4.8-.5.3-2.2.1-.6.3-1.1.7-1.2.6-1.2.2-1.2-.1-5-1.5-2.8.1-1.2-.4-1.1-.8-1.1-1.1-.6-.8-.4-.3h-.6v.3l1.9 1.3.3.4.3.1 1.1 1.9.2.4.3.1.6-.1h.2l.2.3.1.4.2.3.4.1 1.8-.4h.7l5.3 1.5h1.5l.5-.3h.3l.3.4.5.5 5.7.5.2.2.5.8.2.2.4.1 1.9-.2 2.4-1 .7-.6.5-.9.5-.7.8-.1-.2-.7-.1-.2-.1-.2.6-.5.9-1.1.6-.3 5.2.4.6.3.9 1.2.6.4-.3.9-.2.3.4.2.8-.2.5.3.1-.2.3-.3.2-.2.5.5 1.3.9 1.2.4 2 1.7 1.3.7 5 1 .3.1.2.5.1.5.1.4.2.2.7.3.6.7 1.8 3.5.4.8 4.1 5.3.4 1.3.3.7.7.5.2.4.1.4.2.2.3-.1.2-.3.1-.3.1-.1.4.1.4.2.4.5.3.8h-.6v.3l.4.2 1.1-.3.7.1 2.1 1.5v.4l-.2.4.1.4.2.4.3.4-.4.3v.4l.3.2.6.6v.4l-.3.5.1.3.3.2.2.2.1.6.1 3.7-.1.5-.2.9v.8l.2 1.2.8 1.4.1 1v.2l-.1.2-.1.2-.1.2-.1.4.1.4.1.4.1.4.2.6.4.6.7.8-.3.7.1.3.3.3.2.5-.1.5-.2.5-.1.5.1.6.5.8.1.4.1 1.2.3 1.2.1.3.1.1.4.2.1.1.1.1.1.5.5 1.4.3.5.1.5.1.7.2.6.4.3.1.1.9.9.2.6v.3l-.1.2v1.5l.1.5.2.2-.1.5 1.8 6.7.7 1.7 1.1 1.4.5.4 1.6.7v.4h-.6v.3l.1.2.2.3.1.4.1.4.2.3.2.3-.2.5-.3.3-.7.3.1.4.2.2.2.1h.3l.1-.1v-.2l.1-.1h.1l.1.1.1.3.1.2-.1.1.4-.1.2-.3.3-1.5.5.7.5.4.6.2 1.3.2 1.5 1 6.4 2 7 4.4.9.9.4.7v.5l-.1.4.1.5.3.4 1 .8.4.4.5.8.5 1.3.4 1.3v1.1l.1.3.2.4.2.3.3.1-.1.6-.1.2.3.3.6.9.2.3 1.3.4.3.2.4.4.7.4.2.5.2 1.4.1.2.8.9 3.8 1.5 1.1 1-2.7 1.5-1 1.1-.8 2.1.7 1.5.9 3.4.6 1.6 3.3 5.2 5.5 8.3.5 1.7-.4 1.7-.2.2-.7.6.7-1.6.1-.9-.5-.4-.6-.2-1.3-1-.7-.3-.6.1-1.2.8-.7.2-.8-.1-.7-.2-.6-.4-.5-.4-3-3.9-1.1-.8-1.1-.2-.3-.1-3.9 1.3H310l-1.1.3-.2-.1-.8-.8-.1-.1-1.8-.2-.7.2-2.1 1.4.3.1.3.1.3.2.2.3.5-.8.9-.4.9-.1.7.2 1.3.9.3.4.5.3.5-.2.9-.7 5.6-1 .9.4.6 1 2.2 3.5 1.4.7 1 1.2.5.4 1.1.2.4.2 1.5 1.8 3 2.5.6.3.6.1.6.2.5.6.1.4.1.5.1.5.2.2.3.1.9.6-.2.4.5.4.5.7.4.8.1.7 2.5 7 .4 2v2.2l-.7 2.7-.2.4-.4.1-.6.1-.5.3-2.8 2.8-.6.2-.4.3-2.4 3.6-.7.7-.9-.8-.5.4-.4.7.1.6.9.1 1.6-.4.4.2.9.7.4.2.7.5 1.6 2.5.8.9.5-.4.7-.1 1.2.1.5.3.9 1.2.4.2v-.4l-.2-.8.6-.9.8-.9.4-.7.2-1.2.4-1.4.5-1.2.4-.9 1.1-1.1 1.5-.7 1.7-.3 1.5.1-.2-.4.6-.2.7.2.7.3.7.1h2.6l1.2.3 1.4.7 1.5.4 1.4-.7-.3-.2-.4-.1-.4-.1h-.4v-.4l9.6 2.3 3.8 1.9 7.7 5.9.9 1 .7 1.3.6 2.4.6 1.5.4 1.5-.2 1.1.2.8.1 1v1.8l.8 2.4-.1.4-.4.5-.8 2.6v.5l-.1.5-1.4 3.6-1 1.8-.3.4-.3.6-.1 1.3.1 2.3-.2 1-.6 1.7-.1.9-.4 1.4-.1.7-.2.3-2.4 1-.5.6-.5-.4-.1.4-.1.6-.3.3-.2.2-.7 1.2-2.2 2.4-.4.6-.3.1-2.1-2.7-.9-.3-1.5-1.2-.9-.2v.4l1.1 1.1.7.5 1.4.4.3.2.1.2v.8l-.1.2-.6-.2-.4.1-.7.2-.4.1-.4-.1-.9-.6-.7.1-1.5.5-.8.1.8.4 5.2.3.6-.4-.1.9-2.5 2.5.4.3.5.2 1.1.2.3-.3.2-.5.1-.1.1 1.1-.4.8-1.8 1.7-1.6 1.1-1 .4-2.2.3-.6-.1-.3-.2-.5-1-1-1.4-.3-.7-.1 1-.5.5-1.2.6-.9.9-.2.1v.3l-.1.6-.1.6-.2.3-.4.1-.5.4-.3.1h-.4l-.7-.3-.3-.1-.8.1-1.4.6-.7.4.5.2.6.1.5.3.4.8.9-.9 2-.4.9-.4.9-.7.5-.1.5.5.1.4-.1.5-.1.4-.1.1.1.4.1.4.2.6-.3.3-.1.4v1.2l-.1.3-.2.3-.5.4.8-.1.3.2.1.2-.9 1.4-1.6 1.4-1.4.9-.4.2-1.4.4-2.5-.4-.9.1h.1-.2v.1l-.6.6-.4.1h-.4l-.4.1-.4.4-.5-.5h-.9l-2.2.6-.2.4-.1.5-.2.6-.4.5-.4.3-.5.2-.5.3 2-.4.3-.1.1-.4.1-.4.1-.2 2-.6 5 .7.5.3.4.7v.5l-.3.3-.7.1-1.1-.2h-.5l-1 .9-1.1.3-.6.4.2.3.2.4.2.3.3.1h2.7l1.3.3-.3-.6-.1-.7.2-.5h.7l.1.6.3.9.4.8.3.4 6.6.8 3.8-1.2 10-.9.8.5-.3 1.6-.1.3-.1.3-.2.2-.2.2h-1.1l-.2.2.1 1.1.2.8.5 1.3.3 2-.2 1.9-.6 1.6-.9 1-2.1.7-.9.7h-.4l-.7-.1-.4.1-.3.3-.3.3-.2.3-.6.3h-2l-.6.2-.6.4-1.2 1.1-1.6 2.3-.3.6.1 1.3.3 1.9-1.1.4-2.3-.8-2.1-.7-1.2.4-3 3-1.3.6-6.7 1.4-1.2.5h-.1l-.4.5-.3.5-.1.2-1.1.7-1.2 1.6h-1.2l-.6-.1-1.4-.5-.3-.1h-1.1l-.3-.2-.5-.5-.6-.2-1.3-.1-.5-.2-5.9-2.2-1-.1h-.1l-.7.4-1.1-.4-4 1.4H308l-5.1 1.7-.3-.1-.3-.2-.3-.2-.3.1-.2.4.2.9-.1.5-.6.3-.7-.2-2.8-1.8-.2-.3.2-.5.4-.3.9-.4v-.2l-.3-.2-.6-.6-.4-.2-.1.2-.4.2-.2-.1.3-.7-.3-.2-.3-.2-1-.2h-.9l-.6.2-.4.9-.3 1.2-.4.9-.8.1-.6-.7.3-.8.6-.8.2-.7-.6-.3-1.9.2-.5.1 1.1.9.2.3.1 1-.1.5-.4.4h-.4l-.6-.2-.5-.3-.2-.3-.2-.5-1-.5-.7-.6-1-.4-.4-.2-.5-.6-.6-.8-3.4-1.9-.5-.3v.3l.3.2.6.4.4.1.8.9 2.4 2.7.3.7-.1.6-.7.2-2 .2-.4.2.2.2.2.2v.3l-1.4.3-.8.3-.4.3h-.1l-1-.2-1 1.9-.1.2h-.1l-.6-.2-.7-.4-2.1-.4h-.7l-.7.2-1.2.6-.6.1-.8-.1-1.2-.2h-.7l-.6.2-.6.3-.5.4-.5.6-.3.3-.1-.3-.1-.5-.1-.3-1.2-.3h-1l-.1-.2v-.1l-.2-.6-.2-.1-.3.2-1.1 1.8.4-.1.4-.1.3-.2.3-.3.7 1.2.4.4.6.1h.5l.4.1.2.4-.2.8.5.3.2.1-1.1 1.4.1.7-.6.3-2.5.1-.5-.1-2.3-1.1-5.7-.7-1.1-.7-.7.1-1.2.4-.4.5-.4 1-.2 1.1.3.5.8.2.1.6-.7.2-.4.7h-.2v-1.8l-.7-1.2-6.5-5-5.3-2h-.7l-1.8.4-.5.1-1.1.7-.8.1-1.2-.4-.4.1-.7.6-.2.1-.5.4-.3.1h-.3l-.6-.3-.4-.1-.6.1-1 .5-1.3.3-.4.5-.3.7-.5.7-2.2 1h-.7l-.5-.2-.4-.4-.4-.7-.4-1.2-.1-.2-.1-.1-.1-.1-.1-.1-.2-.1-.1.1v.4l.4.4.4 1.7.3.6-.5.5-.5.7-.5.8-.4 1-.3 1.3v.9l.5 2-.7.1-.7.2-.5.4-.2.7.2.8.5.3 1.4-.1v.3l-.3.8v.2l-.3.1-.2.1-.1.2-.2 1.2-.4.3-.5-.1-.5-.4-.2 1.1-.7.4-.7.2-.3.5-.2.8-.3 1-.2 1.1.2 1.2-.5.2-1.3.4-.5.1-.7-.2-.6-.3-.5-.1-.5.5-1.2-1-1.8-2.3-2-1.9-.4-.2-.3.1-.8.4-.3.1-.2.1-.4.5-.3.1-.4-.1-.3-.2-.5-.4.1-.2.1-.5-.7-.2-.7-.5-.3-.7.4-.9-1.1.1-.4-.1-.4-.3-.2-.3-.1-.4-.3-.5-.2-.8.2-.7.5-.7.3-.7-.6.3h-.3l-.4-.3-.1.4v.1l-.2.4-.3.2h-.4v.3l.4.3.1.5-.1.5-.3.4-.4.1-1.5-.1.5.7 1.8-.3.7.5-1.1.3v.3l.3-.1.6.1-.2.4h.9v.3l-.4.1-.2.3v.3l.2.3v.3l-.7-.1-.3-.6-.3-.7-.5-.3-2.6-.7-1.4.1-2.2 1.4-1.2.5-5.1.3v.1l-.1.1-.2.1h-.2l-.4-1.3-.2-.1-.2.1-.2.2-.2.1-.6.1-.6.2-.4.4.2.6v.4l-.2.2-.3.3-.3.4-.1.3.1.3.2.3v.2l-.4.9-.1.3-.3.4-1.5-.2-.6.2-.6.7-.5.3-1.3.4-.4.4-1.3 2.3-.4-.6-.2-1.7-.4-.4-.6.2v.9l-.4.5v.3l.2.1.5.5h-.3l-.2.1-.4.3-.3.2v.8l-.1.4-.3.2-1 .5h.4l.3.1.5.3h.1l.4-.1.1.1.1.2.1.6.1.1.1.4-.4.9-.9 1.3-.3.1-.6-.1-.4.1-.2.2-.9 1.1-.4 1.1-.1.3-.3-.1-.3-.3-.9-1-.1-.2-.1-.3-.1-.6v-.7l-.2-.5-.9-1.5-.5-.6-.6-.4-1.9-.9-1.3-.2-1-.6-.5-.2h-.7l-.8.3-.6.5v.7l.2.8-.3.6-.6.4-.5.2-1.3.4-1.5.2-1.2-.5-.3-1.5h.3l.2-.1.1-.2v-.3l-.1-.2-.1-.1h-.1l-.2-.9-.1-.5.1-.2.1-.2.6-1 .2-.2.9-.4 2-1.2 1.1-.4 1.2-.8h.7l1 .9.6.3.6-.4.4-.7.2-.5.1-.5.2-.2h1.1l1.1-.6 3.6-3.7 1.1-.8.4-.1.1-.2v-.6l-.1-.6-.2-1 .4-.2h.7l2.1-1.2.1-.3.3-.7.3-1.9v-1l.1-.8.3-.7.6-.5h.6l.2-.2.4-.5.2-.1.2.3.1.6.1.7v.5l.2-.1.1-.1.1-.2.6.4 1.3.1.5.3-.3-.7-.5-.3-1-.4-.5-.6.1-.4.2-.4.4.2v-.3l.8.1 2.3-.1.9-.3.5-.7.4-.9.5-.8-.2-.7.1-.5.3-.2.4.1 2.2-1.9.4-.6.2-.9.6-.7 1.3-1 .8-1.7-.1-4.3.3-2 .2-.4.4-1.2-.1-.4-.1-.7v-.7l.2-.3h2.8l.3.1.6.5.3.1 1.8.2.6-.2.5-.3 2.1-2.4.2-.3.1-.3.2-.3.3-.2-.2-.5-.4-1.4-.1-.4-.1-.3-.5-.8-.2-.4 1 .1.2-.1.2-.5v-.5l-.2-.4-.4-.3v-.3l2.4-.9 5.7-.5 1.2-.4.6-.1h2.3l.7-.1 1-.5.6-.1 4 1.1 2.5-.1 3.9.9.9.9.6.3 3.6-.2 2.2-.7 1.1-.1 2 .1 1.2-.2.9-.6.2.3-.4.7.4.4.5-1 .1-.4.1-.6-.1-.3-.1-.3-.1-.5v-1.9l-.1-.9-.4-.6.6.2.3-.2.1-.4v-.8l.2-.4.4-.5.2-.4-.5-.5.7-.7 1 .2 1.1-1.1 2.1-2.8.6-.4.6-.3.6-.2.7-.1.7-.3.6-.6 2.8-4.7.2-.2.3-.1.3-.2.1-.4.1-.4.2-.5.2-.4.2-.3 1.8-1.8 1.1-1.5.5-.3 1.3-.5.5-.5.2-.6-.1-.6-.5-.4-.1.9-.6.5-.7.2-.6.1-.6.2-.4.6-.4.7-.4.6-1.8 1.2-.3.3-.3.5-2 2.4-.9 1.1-.6.5-1.5.4-1.2.8-.6.4-1.3.5-2.6.2-.4-.1-.2-.4-.2-.4-.2-.1-.3.2-.8 1-.2.3-1.8 1.1h-.1l-.4.1-.5.4-.8.8-.1.2-.2.6-.1.2-.2.1-.4.1-.2.1.4 1.1-.2 1.1-.6.6-.6-.2-.5-.1-2.2.9-7.8-.7-.6-.3-.6-.8-.9-1.3-1.8-1.5-.4-.1-.6.3-.7-.4-.6-.6-.3-.5v-.2l.1-.1h.2l-.2-1-.1-.2-.2-.7-.4-.8-.4-.7-.2-.3-.5-.4-.3-.4-.5-.9-.3-.3-.4-.1-1 .1-2.3.3-.5.2-.4.3-.3.3v.5l.2.5.3.5.2.4h-1.3v.1l.2.1-.2.1-.1-.3-.1-.2-.2-.1-.2-.1h-.2l-.1.1-.3.5-.1.1-.2-.1-.3-.2-.8-.2h-.3l-.3.2-.3.3-.4.5-.3.2-.3-.1-.3-.2h-.3l-.1.5h-.4l-1.8-.8h-.5l-.1-.2-.1-.1-.1-.4.6-.4-.1-.5-.3-.7v-.9l1.1-.3.1-.2.3-.6.2-.3.2.4h-.2v.3l.2.1.2.2.9-.3 1.6-.1 1.5-.4.7-1.1v-.7l-.1-.1-.4.5-.3.2h-.4l-1.2-.1-1.7-.9-.4.3-2.5.4-.7-.3-.8-.7-.8-.9-.4-.9 1.3.2.6-.1.3-.4h-.6l-.6-.1-.5-.4-.3-.6.1-.1.2-.3.1-.5v-.4l-.2-.4-.2.2-.2.5-.2.2-.2.4-.2.1-.3-.1-.3-.2-.3-.4-.6.1-.1.3.2.5.5.5-1.1.6-1.2.1-2.3-.3-.9.1-1.1.3-.2.1-1 .7-.1 1.2-.3.1-.1.1v.2l-.1.4-.6 1.4-.3-.1-.4-.4-.2.1-.5.6-2.8-.1-.5.1-.5.3-.3.4-.2.4-.3.4-.6.3-.3.5-.3.1-.2-.1-.3-.3-2-.7-.8-.5.3-.5-.4-.9-1.5-.4-.6-.7.2-.4 2.4.4-.1-.2-.1-.4-.1-.2h.5l.8.3.4.1.4-.1 1-.6 1.5-.3.8-.5.3-.1.4.2v-.3l-.9-.9-.2-1.2.5-1 1.2-.3v-.5l-.4.3-.9.4-1.7.2-.4.2h.5l.4.2.1.5-.2.7.4.4-.1.6-.5.5-2.4.6h-.7l-4.3-.6-.5.2.3.8-.4.4h-.4l.1-.6v-.3l-1.5-1.2-.6-.2h.7l.4-.1.3-.2.4-.5.4-.4 1-.2.6-.2.5-.5.1-.5-.2-1.3v-.8l-.1-.7-.3-.6-.4-.4-.2.4-.6-.5-1.2-.2-.5-.4-.4.3-1.7.4h-.6l.2-.2.2-.1v-.4l-.1-.2-.1-.1.1-.1.3-.2v-.3l-.3-.6.3-.3 1.1-.1.6-.2.9-1 .4-.2.9-.1 1.3-.5 1-.9.1-1.3h.4v-.3l-.4-.3.1-.3.3-.3.5-.1.8.1.4.1 1.7.9h.6l.9-.4-.2-.7.6.1 1.2.5.7.1.3-.2-.1-.5-.1-.6v-.4l.2-.2 1-.2.6-.4.4-.6.8-1.3.6-.6h.4l1 .8-.1-1.5 1.2-.6 3.8.1.4-.1.2-.3.2-.4.2-.3.9-.3.6-.4.6-.6.9-1.1.4-.3.5-.1h.6l.6-.2 3.7-3.2 1.8-2.6.9-1.8.4-1.1.3-2.1.3-1.2.3-1.1.4-.7-.2-.5-.1-.6v-.6l.2-.4.3-.1.7.4.3.1.5-.2 1.6-1.2v-.4h-.8l-1.6.6-.9.1-.5-.4-1.4-2-.4-.8.1-1.3.5-1.3.7-1 .6-.4.1-.1.1-.7.1-.2.1-.1.3-.2 1.3-1 .4-.5-.8.1-.5.4-.5.1-2.4-2.9-.2-1.1-.1-.5.1-.4.5-.2.4-.4-.1-.8-.2-.8-.1-.3v-.7l.1-.4.2-.2 1.9-1.3-.2-.1-.1-.1-.1-.2-.4.4-.4.2-.3-.1-.2-.6-.8.6-.8.1-1.8-.3-2.2.7-.5.3-.6.4h-2.1l-.7.3-.6.5-1.1 1.3.1.1.1.2-.5.3-.3.6v.7l.4.6-.4.4-.2.2-.2.1-.4-.1-.4-.5-.7-.2-.6-.5-.4-.1-.4.1-.2.2-.2.2-.2.2-.7.2-1.7-.2-.5.3-.4.5-.4.2-.5-.3.3-.5v-.2l-.1-.3.2-.2.4-.8 4.3-5 .5-.3.6-.1.6-.2.6-.3 2.5-1.9.6-1.1 2-1.3.3-.7.1-.9.1-2.1.1-.6.2-.2.2.1.1.3.1.3.3-.4.2-.6v-.2l1.2-1.5.4-.2.6-.2.4-.6.6-1.3.7-.9.8-.5.9-.3 1-.1.2.1.3.1.2.1.4-.3.7-.3.7-.2 1.1-.9 3.4-1.4h1.1l-.3-.9-.9-.9-.2-.6.6.1.6.2.5.3.4.5.6-.3.7.2.6.6.5.8.5.3 3.5-.1 1.2-.3 5.9-2.9 1.3-.1 1.2.6.7.5.3.5.4.4 4 2.6.4.5.4.6.2.2.1-.2v-1.9l-.3-.6-.5-.8-.8-1.6-1.1-1.5-.4-.8v-.8l.3-.5.6-.3 1.3-.2.6-.2 1.1-.9.7.1.7.9 1.8 4.8.6.7.8.7.9.4h1v-.3l.1-.2.2-.1h.3l.5.2.2.1.5-.1.4-.1.9-.5-.2-.7.1-.5.2-.4.3-.3.3.1h.3l.3-.2.3-.3h-.5l-1.7.2-.3.2-.2.8-.5.3h-.3l-1-.1-1.3-.5-1.2-.9-1-1.1-.7-1.2-3.6-7.9-.2-.7.1-.7.4-.8 2-3.4 1.7-2.2.3-.2.3-.5 1.2-.9.4-.5h-2.7l-1.1-.5-.9-1.2-.2-1.7.4-4-.4-1.5.5-.9.7-.4 2.8-1.1.5-.1.4.3.2.1.1-.2.1-.3.2-.3.3-.2.2-.1-.4-.6 1.1-1.1.1-.9-.5.4-.5.2-.9.1-.2-.1-.5-1.1-.1-.4.2-.3.3-.3.3-.3.6-1.1.4-.5 1-.4.4-.5.6-1.4-.5-.8-.7-1.5-.4-.9-.1-.5.7-.3.7-.7.5-.9v-1h-.2l-.1.8-.4.6-.9.7-1.1.6-.6.4-.3.6-.2.8-.6.4-1.4.1-.4-.3-.4-.8-.2-.8.3-.5-.2-.6-.3-.5-.4-.2-.4.2.1.7-.1.7-.2.7-.1.6-.1.4-.9 1.2-.5 1.1-.7.4-.8.5-.1.6.1.7v.6l-1.1-1.5-.3-.3h-.5l-.4-.1-.4-.2-.3-.4.1-.8.2-.9v-.8l-.5-.4v-.4l1-.3.3-1.5-.1-1.8.1-1.1-.5.3-.2.6-.3 1.3.3 1-.5.3-.7-.1-.5.1-.7.3-.7-.7-1.1-2-.9-1.2-.4-.7-.2-.9.1-.4.1-.4.1-.5-.2-.7-.1-.5-.1-.1-.7-.4-1.1-2.2-.7-.7-2.9-4.1-.5-.3-.1-.2-.3-.8-.3-.4.2-.4.3-.4.1-.1.7-1.9.8-4.2 1.1-2.4.4-1.3.2-.5.3-.2.7-.3.3-.2.4-.5.5-.9.3-1-.3-.9 1-3.2.6-1.5.7-.9.6-.2.4.3.3.4.5.2.3-.1 1.3-.7-.4-.3-1.6-.8.8-.9.5-.4 2-.6.4.1.2.2.2.2.2.2 1.2.4.6.1 2.6-.8.6-.4h-2.1v-.4l.6-.1.5-.3.5-.2.6.2v-.4l-.8-.3h-.1l-2.7.7-9.9-.7-.5-.1-.5-.3-.5-.2-.4.2.1.1v.1l.1.2-.5.2-.5-.2-.9-.8-.4 1.5.2.6.2 1.1.1 1.2-.1.9-.3.9-.5.3-2.9-.3-.8.1-.7 1.1-2.2-.4.1.3.1.1-.3.2h-.2l-.2-.2-.2-.3.4-.7.2.1.1.3v-.4l-.1-.2-.1-.2-.4.6-.5.5.1.6.1.2-.2.1-.4.3 1.1 1.1-.3.2-1.6.7-2.4 1.8-1.5.2-1-.1v-.4l-.1-.1h-.1l-.1-.1-.1-.1.1-.2.1-.2v-.1l-.1-.5.1-.7-.1-.5-.4-.2v-.3l-.5.4-.4.8-.1.9.3.9-1.2.2-1.6-1-1.1-1.8.3-2.2-.5.3-.8 1-.5.3-.5-.1-2.3-1.1-.4-.3-.3-.4-.3-.8-.1-.6-.2-.4-.5-.1-.2.2-.2.5-.2.7-.1.6.3 1.3.2.8.2.4h.5l.4.1.4.3.4.5.1.7-.3.6-.1.7.4.8-.4.8.1 1.1.2 1-.2.4-.2.1-.2.2-.2.3-.3.1-.7-.1-.7-.3-.8-.6-.3-.1h-1.1l-.3-.2-1.8-2.8-1-1-3.7-2.3-1.4-.4-.7-.4-.6-1.5-.7-.3h-1.2l-.7.3-.7.6-.6.7-.5.7-.3.5-.1.3v.7l.1.4.1.6.2.5.3.2.2.6.4 1.3.5 1.3.9.8v.5l-.2 1v.7l.4.9-.7-.2-1.3-.7-.6-.1-.3-.4-.2-.8v-.9l.4-.5-.2-.3-.1-.4v-.4l.1-.4-.6-.1-.2-.1-.2-.2-.1-.5-.1-.7-.2-.7-.3-.3-.6-.3-2.9-3.6-.9-1.6-.6-1.9-.2-2.1.1-2 .2-1 .4-.4h.7l.4-.1.1-.2.1-.6.3.3.3.6.1.3.5.8.2.5.2.6v.6l-.1 1.3.1.5.4.6.5.5.6.1.5-.6.1-.2.1-.2v-.4l-1.1-2.3-.2-.5-.1-.4v-.1l-.4-1.1-.1-.6v-1.2l.1-.4.1-.5.5-1.3.2-.7.1-1.1.3-1 .6-.6 1.3-.8 2-2.8.1-.1.3-.1.1-.2v-.9l.7-1.8.1-.5v-.5l-.1-1.2.1-.5.2-.3 1-1.3.6-.5.2-.3.2-.5.3-1.3.3-.6 1-.9 2.1-1 .7-1.1.3-1.5-.3-1.3-.7-1-1.1-.4.7-1v-.1l-.1-1.2-.7-1.1-.9-.8-1.7-.7h-1l-.3-.2.2-.5v-.4l-1.8-1.2-1-.9-.6-.9 1.4-1.5.5-1.2-.1-1.9-.2-.7-.2-.5-.1-.6-.2-2.4-.1-1.5.2-1.5.4-1 .7-.6 1-.4.6-.1.4.1 2 .9.5.1.3-.1.7.4 5.2.8.8-.5-3.4-.7-1.2-.3-1.4-.9-1.6-2-1.3-.5-.6-.6-.5-.7-.4-.7-.4-1.7v-.3l-.5-.1-.2.4v.6l.2.7 1.5 2.2.4 1-.2.4-.6.1h-.7l-.7-.3-.3-.8-.1-1v-2.6l1.2-3.2 2.2-3.6.1-.8-.1-.2-.3.3-.4.6-1.8 3.7-.4.7h-.7l-.2-.4.1-1.7-.1-.8-.3-.6-.4-.2-.4.5.4 1 .4 2 .3 1.9-.1.9-.4.2-.1.4.1 1.1v1.1l.1.7.2.6-.4.2-.5-.2-.5-.3-.5-.2v.4l.4.2.4.3.3.4.1.6-.1.8-.3.5-.4.4-.3.5-.1.7-.1.5-.1.5-.3.6-.4.5-.4.1-1-.2-.5-.6-.4-1.4-.3-1.6-.1-1.1-1.2-1.7-.1-.7-.2-.5-.5.4.5.9 1.2 3 .2 1.2-.3.5-.6-.2-2-1.7-.3-.7v-1.2l-.3.4-.3.7-.2.8-.1.5-.1.4-.9 1.3.7 1.6.3.9.2 1h-.6l-1.4-.8-1-.4-.3-.4-.2-1.4-.2-.2-.3-.1-.2-.3-.5.4v-1.5l.1-.4.3-.6.1-.5-.1-.5-.4-1.6.8-.9 3.4-5.9 1.8-.8 1.3-1 .3-.3 1.1-2.5.5-.7.9-.6 1.2-.5 1.1-.8.6-1.5-.6.4-1.1 1.3-.6.2-1.3.1-.5.2-.5.4-.3.7-.7 2-.3.4-3.7 2.5-2.6 4-.3.2h-.6l-.2.2v.3l-.1.8-.2.7-.1-.1-.3.6-.7.2-.8-.1-.5-.4v-.8l-.1-.4-.2.1-.1.3v.8l-.2 3 .1.1.5.3h.2l.3 1.1.1.6v.5l.1.4.4.4v.4h-.2v.4l.1.1.3.3-.1.1-.1.2-.1.1 1.7 1.9.8 1.3.3 1.4-.2.8-.4.4-1.1.3-.5.3-1.6 1.6-.3.5-.3.6-.2.7-.1.5-.1 1-.1.5-.7.5.1.2.1.2.1.2v1.2l.3.3.4.1.2.5-.2.7-.5.2-.4.3.2 1-.7 1.3-.2.5v1.3l-.1.4h-.1l-.1-.1-.1.1-.7 1.8-.5.7-.7.4v.3l.4-.1.3.1.3.3.3.4.5 1.2v.2l.4.4-.3.8-1 1.5-.5.5-.6.5-.7.4-.7.1-.3-.1-.6-.3h-.4l-.3.1-.7.5-.4.1h-.9l-.5-.2-.3-.7-.4-2.3-.1-1.2.2-1.1.9-.7 1.2-1.4.3-.6v-1.1l-.1-1.2-.1-1.2.4-1.6-.1-.4-.2-.4-.1-.4.1-.6.7-1.6.7-1.9.1-1.1-.4-.8 1.7-1.4.2-.6.2-.8.5-.9.5-.8.4-.3.9-.4 1.1-1 1-1.5.6-1.7-3 3.4-1.1.9-.4.2h-.4l.2-.7-.9-.3-.4-.3-.4-.5-.2-.8V296l-.2-.4 1.3-2 .2-.5.2-.7.5-.6.6-.5.5-.6-.7.4-1.1 1.2-.8.4-.6.6h-.3l-.2-.4-.2-.6-.1-.6 3.4-5.3.2-.7-.1-.2.2-.2.2-.3-.4-.2-.4.2-.4.4-.5.3-.2 1-1.4 1.6v1.2l-.5 1-.1.2-.3-.1-.1-.3.1-.4.1-.3.2-1.5 1.1-2.3 2.3-3.4.1-.2.1-.2.1-.2.2-.1.2.1.2.1.2.1v.1l.1.1.3.2h.2l.1-.3-.1-.4-.2-.2-.2-.1-.1-.1-.2-.9-.1-.5.1-.4 1-1.6.2-.5.2-.8-.9.3-.7.9-.6 1-.7.6.2-1.1.4-1.1.5-1.1.6-.9-.3-.7.4-.6.7-.4.6-.1.4-.2.1-.4-.2-.4-.4-.2-1.3.4-.3.2-.3.4-.3.3-.3-.1-.2-.5.1-.6.4-1.2.4-2.1.3-.7.6-.7.6.3.8-.1 1.6-.6v-.4l-.7.1-1.3.5-.7-.1.6-1.9.2-.4.3-.2.4-.2.3-.3-.1-.5.8-1.1 1.1-.5 3.1-.3 2.5.7 1-.3.8-.7 2-2.7 1-2.3.7-.9-.7.4-.4.8-.4 1-.5.9-1.3 1.1-.7 1.2-.3.4-1.7.5-3.3-.8-.9.8-.5-.4-.5-2.1-.4.2-.4.5-.6 1.2-.4-.3 1.1-2.7.2-.8.7.7.8.3h.7l.6-.2 1.5-1.2.8-.4.4-.3.3-.5-1 .6-.4.1h-.7l-.5.4-.3.1-.7.6-.5.2-.4-.2-.5-.6-.4-.1.1-.4.1-.2.1-.1.2-.2.1-.3.1-.5.1-.2.8-1.5.3-.4 1.3-1.2.2-.4.2-.4-.6-.4v-.4l.3-.2.7-.6.8.1h.4l.9-.8h.7l1.3.4.6-.2 1.2-.8 2.5-.6.5-.4-5.1 1.1-2.4-1.2v-.3l.3-.8.2-.3 2.1-2.3.6-.9.5-1.1-1.9 1.7-.3.5-.1.4-.3.3-.4.2-.3.1-.3.2-.1.4-.1.5-.1.5-.4.8-.4.5-.5.2h-.5l-.3.1-.3.5-.6.2-.3.3-.4.7-.9 1.1-.5.3-.6.1-.3.2-.4 1-.3.2-.4.1-.4.3-.3.4-1.2 1.9-2.1 2.5-2.1 1.7-.2.1-.3-.2-.4-.7-.3-.2-.5-.1-.6-.3-.5-.4-.4-.4.5-.9.1-.4.1-.6h-.2l-1.2 1.6-1.9-.4-4.6-3.8-.2-.4.1-.9.3-.4.4-.2 1.6-.1 1.1.2 1 .5.9.8.2-.4-.7-.6-.3-.4v-.6l3.3-2.2.8-.1 2 1 .8.2 1.7-.1.9-.2.7-.4-2.9.4-1 .1-1.6-1-1.3-.3-3.4 1.9-1.2.3h-.3l-.4-.2-.7-.5-.4-.1-2.2.2-2.3-.6-.8.1-.6.6-.6.4-.8-.2-.7-.4-.4-.4-.2-.3-.1-.3-.1-.3v-.4l.1-.5h.1l.2.1.2-.1.7-1.1.4-.3 4.8-.5.4-.2 1.1-.8.5-.2.5.1.3.3.3.4.5.4 1.6.7.3.2v-.6l-.1-.6-.3-.4-.6-.1v-.4h.8l.4.1.3.3.5-.6.7-.2.8.2.6.2-2.3-1.2-.6-.7v-.6l.4-.4 3.2-.5 1.3-.6 1-1-.4-.2-.6.1-.5.3-.5.9h-.6l-1.2-.3.3-.6 1.2-1.4-1.4-.3-2.9.7-1.5-.4 1.1-.3 1.1-.1v-.4l-.2-.2-.6-.6.5-.7.4-1.2.3-1.3.4-1.1.6-.7.9-.6.9-.3.8.2.3.4.6 1.1.4.5.4.3.5.2 1 .2 1.7-.4 1.5-.8v-.4l-.5.2-.5.3-.4.2-.4-.2-.7.5-.7-.2-.7-.4-.6-.2-.5-.3.1-.7.1-.8-.7-.5h-.3l-.6.3-.3.1-.3-.1-.5-.5-.3-.1-.3-.4.5-.9 1.3-1.7.4-.6.2-.2h.4l.9.1.3-.3.5-.3.8.3 1.3 1 .6.3h3.1l.1-.2.2-.4h.6l.5.1.2.1h.2v-1l-.6-.4-2.6.5-.7.3-.4.1-.2-.2-.8-1-.4-.3-2.6-.8-.4-.6.2-1 1.1-1.6.4-.8-.6-1 .7-1.1 1.3-.8 1.1-.2 1 .8 1 1.2 1.1.8 1.2-.4v-.5l-1.3-.3-.3-.3-.5-.8-.3-.4-.3-.2-.3-.4.4-.9.8-.8.7-.3v-.4l-.8-.3-.5.5-.4.7-.4.4-.5.2-1.1.8-.6.2-.7-.1-1.2-.6-.6-.1-1.3.4-.6-.1-.3-.8.1-.2.7-1.8.2-.3.7-.4.3-.3.3-.3.2.2.2.4.1.2.7-.1 3.5-1.7 1.4-1.3.3-1.6-.5-.1-.8.9-1.4 2-.8.6-.7-.1-.8-.4-.9-.1.7-.5.3-.4-.1-.5-.3-.7-.1-.4h-.1l-.5.5-2.1 2.8-.8.4-1.6.2-.7-.4-.5-2.3h.1l.1-.1.1-.2.1-.2-.1-.2-.3-.4-.1-.2v-.8l.1-.4.3-.4-.3-.2-1-.3-.2-.1-.1-.6-.3-1-.1-.7.1-.4.4-1 .1-.4v-1.5l.1-.5h.5l-.1-.3-.1-.7-.1-.3.6-.2.6.1.5.4 1.7 1.7.5.4.3-.2.5.8.3.2.9.7.3.1-.2-.3-.1-.3-.1-.3-.1-.3 2.2-.4 1.3.2h.7l.1-.4-.9-.8-1.4-.3-1.4.2-.9.8-1.1-1.3.2-.2.3-.6-1-.2-.5-.9-.4-1.1-.6-.9-.5-.2-.5-.1-.4-.2-.1-.7.2-.7.6-.7-.2-.5v-.4l1.2-.7h.6l.9 1 .4-.1.3-.4.2-.6-.3-.1-.2-.3-.2-.4-.3-.4-.4-.2-2.6-.6-.1-.6.1-1.5-.1-.7.1-.5-.3-1.2-.1-.7.1-.6.2-.6.3-.5.4-.3.8-.3h.8l.8.3.8.5-.1.8.1 1.2.2 1.2.2.9.3.6.4.4.5.2h.5l-.2-.3-.1-.3-.2-.7h.4l.3.1.6.4-.2-1.1.1-.8.1-.7-.4-.9-1.2-1.1-.4-.7.3-.6-.2-.1-.1-.1-.1-.2.3-.6.7-1 .3-.5.5.6.3.2h1.1l-.2 1.6.9 1.2 1.3.7 1 .1-.2-.4.4-.5.4-1.7.3-.6h.4l1.4.6.4.4.9 1.1 1 .7 2.3.9-.5-.8-.4-.4-.9-.4-1.4-1.4-2-.9-.2-.2-.1-.3-.1-.1v-.2l.1-.4h.2l.2.3h.2l.2-.7.6.4.9 1.3.7.4h.4l.6-.3.3-.1.4.1.7.5.3.1.4.3 1.1 1.1 1.3.6.9 1.6.6.4-.2-.3-.2-.5-.2-.6-.1-.4-.2-.4-3.1-2.7-.8-.2v-.4h.6l.2-.4-.1-.7-.3-.7-.4-.3-1-.2-.4-.4-.9-.2-1.3-1.6-.8-.2.1-.2v-.1l.1-.1-.5-.7-.6-.2-1.3.1.1-.3.1-.2.1-.2.2-.2v-.4l-1-1.9.6-.8 1.2.3.7 1.5.7-.6.7.2.7.1.7-1h-.2l.1-.6v-.5l-.1-.5-.2-.4h.4v-.4l-.6-.4.4-.3.9-.2.4-.2v-.4l-1 .1-.5-.1-.4-.3.2-.4-.2-.3-.3-.2-.3-.2-.3-.1.1-.3.1-.7.1-.3h-.4l-.3-.2-1.4-2.2v-1l.5-.2.7.3 1.3.9.5.2.5-.2 1.2-.8.7-.2.7.1.7.5.2-.4.4-.4.5-.3.3-.1.6.2.9.8.4.2 1.5-.1.5.1 2.1 1.6-.3-.6-.4-.4-.8-.7.4-.3.9-.2.4-.3-2-.4h-.6l.3.1-.3.5-.3.1-.3-.1-.6-.6-.3-.1-.5-.3-.9-1.4-.3-.3v-.2l-.6-.9-.1-.1-.2-.8-.1-.4-.1-.4h.6l-.3-.6v-.6l.2-.6.3-.6v-1l.1-.1.2.1.4.2.2.1 1.8 1.3 1.3-.1-.9-.7-.3-.4.1-.5-.2-.4-.3.3-.3.2h-.3l-.4-.1v-.4h.4v-.4h-.2l-.1-.1-.3-.3 1.7-1 .8.4.9.7-3.4-3v-1.1l.1-.5.2-.3 1.7-1 .4-.5.4-.9h-.2l.3-1.2.1-1.2.2-1 .5-.6 4 .9.7.5.6.7v.3l.2.9.2.8.1-.1v.6l-.1.5-.1.5-.2.4.6-.5.2-.6.1-.6v-.6l.1-.9.3-.4.2-.4-.1-1 .5.5 1 1.3.5.3.9.7.4.1.3.2v.5l-.5.3-.1.4-.4.5-1.1 1.1-.6 1.5-.6 1.1-.3.8.6-.1 1.8-2.1.3-.2.2-.9.5-.4.6-.3.6-.6.3-1 .2-1.1.3-.8.8-.3 1.3.3 1.3.6 1.5 1.1v.4l-.1.2.1.6-.7.9-.5 1.1-.4 1.2-.6 1.3.5-.2.5-.5.8-1.3v-.7l.1-.1.1-.1 1.3-1.4.1-.1 1.2-.9.8-.4h.3l.6.2.9.9.7.2-.4-.4.3-.3.2-.4.2-.3.2-.2.4-.1.6.3.4.1.3-.2.2-.8.4-.2h1.2l.6.2h.3l.4-.2.3-.4.4-1 .3-.2.3-.1.1-.1v.1l.6 1.2.2.2.7-.1 2.7.4 2.6-.4 1.4-.6 2.1-1.6 1.2-.6 1.9-.4h1l.7.3-.3.3-.1.1.8.7.9-.1 1.8-.6 1.7.8h.9l.4-1.2-.5-.2-.6-.4-.5-.6-.3-.8zm-90.3 10.3.9-.9.8.1.6.7.6 1.1.4 1.1.1.9.6 1 .1.6-.6.3-.2.3-.7 2.5.3.4.4.3.4.2h.5v.4l-.7.3-1.4 1.1-.5.6.2.5v.4l-.2.2-.4.1-.4.2-.3.8-.9.4-.1.4.1.5v.4l-.3.3-.3.1h-.9l.6.9 1.2.4 1.2-.1.9-.4 1.5-1.6.5-.3.6-.2h.3l-.3.4v.4h.2l-.1.3-.1.4-.1.2.1.2.1.6-.8.4-.3.2-.2.3-.3.6-.1.2-.6.3-.4-.1-.9-.6-.5-.2-1.4.2-.5-.2-.9-.6h-.5l.7 2.1.3.7-.2.3-.1.2v.3l.1.4-.5.4-1.6.4-1 1.3-.5.3h-.3l-.5-.3h-.3l-.9.8-1.6.4h-.5v.4h1.2l4-1 1-.6.4-.1.4.3.3.6.2.8v.8l.1.1.3.3-.2.3-.3.2-.3.1-.3.1.3.3.4.1.4.1.4-.1-.6.7-.4.7-.5.5-.7.2-2.9-.5-.7-.3h-.2l-.2.4.3.3.7.3.5.5 1.1.3.4.6v.4l-.3.2-.5.9-.3.4-.5.4h-.4l-.4-.2-.6-.2v.4l.1.1.2.2.1.1v.4l-.7.4-.6-.1-.5-.4-.4-.6-.3-.8-.2-.3-.3-.1-.1.3.2.7.3.7.2.4-.2.4-1-.5-.3-.3-.2-.3-.2-.7-.9-1.8-.3-.8-.1-.8.5-1.5.9-.9 1.1-.4 1.2-.1v-.4h-3v.4l-.1.7-.7.9-.9.9-.6.4.4.6.7 1.7.3.4.4.2.4.5.3.5.3.4-.2.1-.1.2-.2.1h-.2l.2.4.3.2.2.1.1.1.1.4.1 1.2-2.5-.6-1.1-.6-.3.2-.2.3-.1.4-.3.4.4.2.7.3.3.2.7 1.3.1.3-.2.5-.4.3-.6.1-.6-.1v.4h.2v.4l-.7-.1-1.5-1.1-.2.4.2.1.3.4.2.2-.3.6-.3.4-.8.7.1.1.2.2.1.1-.6.7-1.9 1.3-.6.6-.2-.1-1.6-1.9-.3-.2-1.9-2.4-.3-.3-.1-.4-.2-.4v-.4l.5-.1.4.1.2.3.2.5.1.7 2.6-2.4.4-.6.7-.2 1.5.1-1.5-1.2v-.4l1.6-.9.9-.2.9.2.6.5-.3-.3-.3-.3-.2-.2-.1-.2-.1-.2.6-.4.2-.1v-.4h-1.8l-.4-.2-.8-.8-.5-.2-1.8.1-.8-.3-.3-.9-.4.3h-.3l-1.5-1.1.5-.4.4-.5.4-.4h.6v-.4l-.1-.1v-.2l-.1-.2.9-.1 1-.4 1.9-1.1-2.9.8h-.9l.1-.5.2-.3.3-.1.4.1v-.4h-.9l.3-.2.2-.3.2-.3.1-.4-1.4 1h-.2l-.9-1.9-.2-.3.2-.7-.2-.3-.3-.1-.1-.3.1-.7.4-.5v-.6l.3-.1.1-.1.1-.2.1-.3-.2-.1-.2-.2-.1-.1v-.4l2.3-.2.6-.3-.8-.4-.3-.3-.1-.7.1-.7.2-.4.6-.7.5.4 1.2.7h.2l.2-.2 1.7.8v.4l-.9-.1.2.8.6 1 .4.5v.9l.3 1.2.5 1.1.4.6-.1-.5v-.3l.1-.8-.2-.4-.5-1-.2-.6.3-.2.1-.4v-.4l.1-.2 1.4-.4.3-.3.5-.2.8.4.7.7.4.9.9-1.2-.8-.5-.3-.3-.1-.4-.2-.9-.1-.3-.2-.1-.4.1h-.2l-.1-.2-.1-.5-.1-.2-.4-.5-.1-.3-.1-.4.2-.1.1-.1.1-.1h.2l-.2-.4-.1-.3-.2-.1h-.3l2.5-2.3.7-.9.4.2.2-.2.2-.3.3-.2h1.1l.8-.2 2-1.1.3-.2.8-1.1 5.5-4.3zm-18.3 14.8.2-.6.6.3 1 1.2.3-.2.3.3.2.4.2.4.1.5h-2.5v-.5h.4v-.4l-.4-.2-.3-.6zm-4.7 19.4.7-.3.6.4v1.3l-.4.2-1.1-.7-.1.7-.2.4-.3.2h-.4l.1-.5v-.1l-.1-.2zm-48.9 6.1-.3-1.2.5.4 1.1.2.5.3-.5.7-.7.2zm44.5 4.5.6-.1.3.6-.6.7-.9.4-.7-.1zm26.9 2.1.1-.2.3.6.3.4.7.6.3.4.8 1.3.1.3 1.4 1.2.6.8.3.6.1.5.3 4 .3 1.7.1.8-.1.9-.3 1.3-.1.8-.2.4-.8.8-.3.5.4-.4.5-.4.6-.2.5.2.3.6-.2.5-.3.5-.2.4.2.9.4.6.5.4.2.4-.2.5-1 .6-.4.4 2.7-.4.7.2.1.5-.4.5-.8.4v.4l.9-.1.7-.4.6-.1.7.7.3.2.4.1.8-.1.5.2.3.5.2.5.2.3h.4l.3-.3.2-.4.2-.2 1.3.1.9-.9.9-.3h.9l.5.7h2.3l-.5 1.4v.4l.1.6-.1.6-.2.5-.6.9-1.1 1-.5.3-1.2.1-.2.4-.1 1.3-.3.8-1 .6-.7.4-.3.3-.2.4-1.8 2.6-.5.5-.6.4-1.7.3-.4-.2-.3-.7.1-1 .8-1.2-.1-.5v-.4l.2-.1.1-.2.1-.5.1-.3.2-.3.6-1.1.3-.4.4-.3 3-1.5v-.4l-.9.5-.9.3-2.6.1-.2-.2-.1-.3v-.4l-.1-.3-.7-1.2-.4-.5-.4-.2.1.6.1.5.4.9-.3.8-.2.4-.3.3.2.4-.4.5-.2.6-.3.6-.5.2-.4-.5-.2-1-.1-1.2-.1-.9-.3-.3-.2-.1-.2.1-.2.3-.2-.4-.2-.2-.3-.1h-.3v.4l.5.5-.5.4-4.4 1.2v-.4l.4-.3.9-1.2v-.4h-.6l-.6.1-.5.3-.5.4-.6-.9-.5-1.1.3-.2.3-.2.2-.3.2-.5-1.4.1-.5-.2-1.5-2-.1-.2-.2-.5-.1-.2-.1-.2-.1-.1-.1-.2-.1-.4 1.4-1 .6-.3.7.1.6.5.6.7.6.6.8.2-.4-.8-2-1.6-.4-.5-.2-.2-.4-.1-.4.1-.7.3h-.4l.4-.4v-.4l-.3-.1-.6-.3.2-.1.1-.1.1-.2-.3-.1-.2-.3-.1-.5.1-.6-.5.1-.6.8-.4.3.2-.5v-.5l-.1-.5-.3-.4-.3.8-.4.2-.4.2-.3.5-.1.7.3 1.1-.1.6-.5.4-2.8-1-.7-.5-.6-.7-.2-.8-.3-1.5-1.3-1-.3-1.3h1.9l-.4-.5-.3-.6-.1-.7.2-.7.4-.6.3-.2.3.2 1.6 2.4.2.5.3.4.6.4.4.1-.2-.7v-.9l.1-.1.1-.2.1-.1-.5-.7-.1-.1-.1-.2-.3-.4-.1-.2.1-.3.3-.1.1-.2.2-.3.6.1.9.4-.3-1-.8-.9-.9-.6-.8-.2.4-.6.3-.9.1-.8-.4-.5v-.4h.6l.4.4.4.5.7.5.1.5v.5l.1.4.3.4.2.2 1.5.8.4.3.4.5.4.5.4-.1.4-.2h.5l-.7 1.7.3.1.7-.9.4-1.1.4.2 2.4 3.2v-.4l-.1-.2-.2-.4-.1-.2v-.8l-.4-.7-1.1-1.3-.5-1.2.1-.6.4-.6.4-1.2-.4.1-.4-.1-.3-.2.7-.3.1-.8-.2-.5-.3-.3-.1-.4v-.7l.1-.2.2-.1 1.2-.8.2-.2.3-.7.2-.7.2-.4.4.2.2-.1zm-31.8 1.3.7-.7v.4l-.2.2-.1.2-.3.7 1.7.7.7.1v-.4l-.2-.1-.4-.3.7-.3 1.5-1.1.8-.1.4.5.1.5-.2.5-.5.4.5.3.9-.5.4.3h1.2l.6.3.3.7-.3.3-.5 1-.2.2-.4-.1-.3-.4-.2-.5-.2-.2-.3-.1-.7-.7H102v.4h.4l.2.1v.2l-.2.4v.4l.9-.1.2.3.1.8.2.5h.5l1-.3-.6 1.3-.8.5-1.8.2-.2.1-.4.3h-.2l-.2-.2-.3-.8-.1-.2-.4.1-1.3 1.1v.4h2.2l1.8-.5.6.1.5.2.2.2.1.4-.1.4-.6 1.2-1.3-.1-.6.1-.5.4-.5-.4-1.1.1-.5-.1-.3-.2-.1-.1-.4-.7-.1-.3-.1-.3-.2-.3h.3l.6-.4-1-.1-1.9-1.2-1-.2-.2.4-.2.3-.6.2-.2-.1-.4-.2-.5-.2-1.4-1v-.5l.7-.5.5-1 .4-1.1.5-1 .6.4 2.1-.4v.4h-.2l-.7.3.6.9.9-.9zm42.5 5.8h.2l.2.3-.4 2.2v.9l-.5-.3-.2-.6.1-.8.4-.7-.1-.2v-.1l-.1-.1.2-.4zm-.8 4.5-.4-.8.3.1.2.1.2.2.1.3-.1.9-.5 1.7-.5 2v1.8l.2.4.4.9.2.9-.5.4-.5.2-.5.4-.5.2-.5-.3.1-.4.1-.2.1-.2-.3-.5-.1-1 .2-3.7.2-1 .5-.5.9-.1v-.4l-.2-.3-.2-.3-.2-.6.4-.4h.3l.6.4zm-40.9.8.4-.3.2.3.3.1h.3l.3-.1-.1.3-.1.1.3.2.3-.1.3-.1.3-.1.2.1.8.7-.2.4-.4-.3-.7.6h-.6l.2.6.3.2h.7l.4.2.2.4v.4l-2.7.8-.8-.2-2.4-1.5-.4-.7.2-1.1.4-.9.6-.5h.7l.4.3.4.1zm-1.6 4.4h.3l2.8 2-.3.2h-.2l-.6-.2v.4l.7.1 1 .9.7.1v.4l-.9.5-.7-.3-.6-.6-1.3-.8-.6-.9-.6-.6-.7.4.2.2.2.3.2.3.1.3.1.5.2.1h.3l.2.1.7.4.1.1.4.7.5.2h.9l.5.2.4.4.3.5.3.3h.5l-.1.8-.3.3-.4.2-.4.4-.2.5-.3 1.2-.2.5-.6.3-2.4-.6v.4l2 .6.5.5.3.9.1 1.2-.1 1.1-.1.4-.5-.4-.6-.1-1.2.1v.4l.6.1 1.1-.1h.5l.5.5.4.6.4.5.6.1v.4l-.7.8-2.6-.5-1 .6-.9-1.1-.3-.6-.8-3-.1-.9.2-.7v-.4l-.5-.8-.3-.3-.4-.1.4-.5.2-.4.4-1.1.1-.6.1-.5.2-.3.4-.1.2-.8-.4-1.7-.8-2.6.6-.5zm41.9 5.2.7-.5 1.1.2.8.8.1.9-1 .4-.8-.3-.7-.8zm-16.9 14.2.6-.2.4.3.7.2.4.3-.8.5-1 .2h-1l-.8-.2.5-.4zm-27.7.6h.1l.1.1.2.3h.2l.1.1.1.1.1.2-.4 1-.2.2 1 .5.3.3.1.4.1.5.1.4.3.3h-.9l-.3.2-.2.4-.3.3-.2.2-.2.1.2.5-.3.4-.5.2-.5.1-2-.4-.5-.3v-.5l.4-.6.5-.2.4-.3.1-.6-.1-.6-.3-.4.8-.6.7-.2.6-.5zm33.7.2 1.2-.2 1.6 1.1.7.8-.6.5v.4h.8l-.4 2.1-.6 1.2-.8.5-1.2.1-.6-.3-.5-1.4-.4-.3-.5-.2-1-1-.6-.3 1.9-2.2zm-3.9 20.8.8-.2.3.2-.2.6-.3.6-.4 1.1-.2.4-.2.3-.2.2-.3.2-.4.1-1.2 1.6-1.6 1.3-.5.2-.7-.3h-.4l-.1.5-.1.6-.3-.3-.3-.7-.2-.5.9-.2.8-.8 1.4-2.3.4-.5 1-.8.7-.3.9-.8zm10.6 2.1 1-.1.4.3 1.5.5v.3l-.1.6-.1.3 1 .1.8 1.1 1.3 3 .1.4v.4l.1.3.3.1h3.1l.2.2.2.3.2.2.5-.3.3-.1.3.1.2.2.7 1.1.3.2.3.1.6-.1h.2l.4.3.4.5.4.7.1.7.2.1.4-.1.3.2-.1 1.1-.3-.2-.3-.1-.6-.1.3.4.5.8.2.8-.4.4h-1l-.4-.2.1-.6-.2-.2-.2-.1h-.4l.1.7-.4.7-1 .9v.4l.5-.4.6-.2 1.2-.2.5.3-.2.6-.5.7-2.8 1.9-1.2.3-1-.7.2-.2.3-.4.3-.5.1-.5-.2-.3h-.4l-.8.3-.2.2-.2.4-.2.4-.3.2-1 .2-2.5 1.3-.5.6-.4.3-.4-.1-.4-.3-.4-.1-.3.1-.7.5-.3.2H132l-.2.2-.2.4-.2.4-.3.2h-.4l-.7-.2-.8-.5-.6-.6-.4-.9-.2-1 .3-.8.7-.5.8-.2.6.1.5.6.4.8.4.5.6-.4v-.4l-.3-.1-.1-.1-.1-.1-.2-.1.6-.3 1.4.3.5-.3.5-.5 2.2-.5 1.4-1 .6-.6-.2-.3-.6.2-1.8 1-1.5.4-.8-.1-.6-.5-.1-.6.1-.6.3-.4.4-.2.4-.1.2-.3.5-1.1.1-.4.1-.4.3-.3.3-.1 1.1.1 1.9-.9.4-.3.2-.6v-.5l-.1-.5-.3-.3-2 1-.7.1-.2.1-.3.3-.3.1-.3-.3-.5-1.2-.3-.5-.4-.4-.6-.4-2.9-.5-.6-.3-.5-.4-.4-.4 1.5-1.1-.3-.5-.6-.7-.2-.7 1.1-.1.5-.2.5-.5.3.4.3.2h.3l.2-.3.1-1.1.9-.7zm-20.8 6.4 1.6-.6h.8l.4 1-.4.7-1.9.2-.1.9-.6.5-.7.1-.6.3-.6 1 .2 1h-.6l-2-.9-.3-.6-.2-.9-.3-.9.7-.4 2.1-.4.7-.3 1.1-.8zm18.3 1.9h.4l.5.5.9.8.3.7-1.6.1-.8-.1-.8-.7.3-.5.4-.4zm22.3 5 .3-.3-.5 1-.6.6-.7.3h-.8l.2-.5.2-.4.5-.6h1zm-2.7 5.2.4-.2-.2.7-.3.5-.2.5.2.7-.7.4-.6-.4-.2-.9.4-1.1.4-.3zm-1.4 3.7.4-.4.2.2.2.1h.1l.2-.3.1.8-.2.8-.3.8-.3 1.7-.3-.3-.6-1.5.3-.5zm-2.4 3.8 1.1-.8.2.4.2.9-.6.6-1 .3-.7.1.3-.9zm-.8 2.6.9-.6.7.3.1.5.1.8-.1.7-.5.5-.5.8-.6.6-1.2 3.1-2.6 5.2-.7 2.2-.3-.1-.8 1-.5.3-.2.4-.3 2.1-.2.8-.8.6-1.2-.1-1.1-.7-.5-1.4-.3-2.6.1-1 .3-.9.5-.4.5-.3.5-.5.9-.8 2.5-.5 1-.9h-.7l-1.2.3-1 .1-.5-.9.4-1.3.9-1.4 1-1.2.6-.5.9-.3 2.4-2.4zm-13 1.1.5-.2h.4l.1.7-1 1.7-.4 1.1.1 1-.6.5-.9.2h-.9l-.6-.3.5-.4.2-.6.2-.7.3-.7.6-.9.2-.3.2-.2.5.2.3-.2-.1-.2-.1-.2-.1-.4zm.5 10.3.3-.3.3.1.2.2.1.3.1 2.4.4 3.1.1 1.7.2.5.4.6.5.4.3.2.1.2-.1.5-.1.5v.3l.2.3.2.2.5.2-.1.6v.6l.1.6.2.4v.4l-.4.2-.3.2-.2.3-.1.5-.2-.4-.6.9-.7.6-.8.5-.9.3-1.3-.2-.4.2-.2 1.2-.1.2-.3.3-.8.6-.8.3-.7-.3-.4-1.2.2-1.3.7-.8 1.7-1-.7-1.9-.4-.5-1.2-.6h-.3l.1-1 .8-1 1.4-1.4-.7-.3-.9-.2-.9.1-.6.5-.7 1.9-.4.9-1 .7-1 1.5-.4.4-.9.1-.4-.5v-.9l.4-1-.1-.1-.1-.2-.1-.1.3-.9 1.4-2.1-1-.8.4-.4.3-.3.1-.5v-.9l.1-.7.2-.4 1.1-.8 1.7-.8.4-.4.4-.3.4.2-.2.4-.4 1.6v.3l.2 1 .2.4.4.1v-.4l-.2-1.1.7-1.2 1-1 1.1-.7.8-1.1.4-.2.4-.1.5-.3zm29.5 1.4 1-.5.9.8.9 1.1.3.2.3.1.2.2.2 1.2.2.3.3.1.3.2.4.7.3.7.2.8.3 1.7-.1.3-.2.3-.3.8.3.2.2.4.1.5-.2.4h-.4l-.3-.5-.4-1-2-1.9-.3-.9-.4-1.5-.1-.7-1.1-.7-.2-.4-.3-.9-.4-1zm-3 10.4.8-.1.2.1 2 1 .6.5.6 1 .4 1.2.6 2.7-.4.7 1.3 1.4.1 1.2-.3.2h-.4l-.3.2.2.7.3.2 1.3.6-.7.5.1.7.3.9.1.9-.4.5-.8.3-1.4.3-1.7-.2-1.4-.5-1.3-.8-1.3-1.1v-.8l-.3-1.5-.1-.4v-.4l.2-.1.1-.1.1-.2.2-.3-.8-1.1-.6-1.1-.3-1.3.2-1.8.4-1.2.8-1.2 1-.8 1-.2-.1-.2-.1-.4zm28.3 70.7.6-.2.5.3-.2.8-.6 2 .1.7.2.4.2.9.2.4.2.2.6.1.2.2.2.3.2.5.1.4-.3.2-.2.2-.4.9-.2.2-.2.4-.2.5-.2.4-.2.2-.9.5.3 1.5-.7.8-1.1.6-.9.8v.7l-1.7 1.2-.5.6-.2.4-.4.2-.5.1-.4.2-.3.4-.4 1.4-.3-.7-.2-.4-.4.2-.4.1-.5-.2-.6-.8-.4-.2-.7.3-.6.6-.6.4-.7-.2v-.2l.2-.1.1-.1.1-.1.2-.1v-1l1-1.5.3-.9v-1.6l.1-.7.3-.8.1-.5v-.4l.1-.2.7-.2.8-.5.6-.8.9-.9.4-.6 1.4-3.3.7-1.4 1.1-1.1 1.7-1 1.2-.3zm-1.3 52.1h.4l2.2.4h.6l1.2.7.3.3.1.6.1.6.1.3v.1l.4.3.5.3h.2v1l.1.1v.1l.5.6.2.6.1.5.1.3.4.1.4-.1.7-.2.4-.1.2-.1.3-.5.2-.1.2.1.4.3.1.1.9-.1.4.1.4.3-.6.7-1.1 2-.7.4-.8.1-.8.4-.7.6-.6.7-.1.2-.1.1v1l-.1.1-.1-.1-1.1.8-.5.6-2 1.2-.3.1-.4-.1-.8-.4v.1l-.2.2-.2.1-.2-.1v-.8l.1-.4.1-.2.2-.2.4-.5.2-.5-.3-.2-.5.2-.7 1-.5.2v-.2l-1-.9h-.1l-.3.1h-.1v-1.2l-.1-.4-.6-.6-1-2-.6-.7v-.4l.2-.5.1-.8V431l.2-1.7-.1-.7-.3-.8.6-.4zm-8.3 6.1.8-.7.4.2h.4l.5-.1.2.2.5.5.4.6.3.6.1.7.2.3.3.3.2.4-.1.6-.3.1-.3-.1-.6-.6-.6-1.2-.3-.4-.3-.1-.9.1-.2-.1-.5-.9v-.4zm169.3 94.6.4-.1 3.8 1.4.3.2.3.3.6.7.3.7-.2.6-.8.3-3.6-.3-.6-.2-.5-.6-.4-.7-.3-.6.4-1.4zM180.6 539l.2-.1.1.4.1.2.1.3v.6l-.2.2-.3-.3zm114.2 19.3.8-1.4h.4l.3.3.1.3-.1.3-.3.2v.3l.2.2.3.4.2.2v.4l-2.5-.4v-.3zm-9.9 1.5.7-.1 4.7 1.9h.8l.3.1.4.3v.6l.1.1.3-.1h.1l.6 1v.4h-.1l-.1.1-.1.1-.1.1-1.2.3-.5.2-.9.8-.2.2-.1.3v1.6l-.1.2-3.4 1-1.1-.3-4.1-2.9-.2-.3-1-.7-.4-.1-1.2.1-.5.2-.6.4.8-1.4 1.2-1.1 2.7-1.3-.1.2-.1.3-.1.2.8-.1.7-.6 1.1-1.3zm-156.3 39.6v-.4h.2l.1.1.1.1.2.1v.4l-.2.4-.3-.1zm1.3 1.4.3-.4.2.2.2.4-.1.4-.3.2-.4-.2zm128.2 9.4h.1l.1.1v.3l-.6.6-.4.2-.5.1-.3-.2.2-.5.4-.3h.3zM247 620.8l.6-.2.5.4-.1.4-.5.9-.1 1-.2.7v.3l-.2.3-.3.2h-.2l-.2-.1-.3-.1h-3l-.1-.1.1-.2.2-.2.3-.1-.1-.7.2-.2h.4l.4-.1 1.4-1.3.7-.3zm5.3 3 .3.3.1.6-.3.5-.3.3h-.1l.1-.3.1-.2-.1-.3v-.2l.1-.1.1-.2zm6.4 8.9.4-.3.2.2.7.2.4.2.2-.2.2-.1h.5l.5.5 1.5.7v.5l.1.2.2.3.1.1-.3.2-.1.3v.9l-.1.5h-.2l-.3-.2-.3-.1h-1l-.5-.2-.7-.7-.3-.2-.3-.1h-.2l-.2.3-.2.4-.3.6-.3-.1-.4-.4-.3-.1-.1.1-.6.3h-.3l.2-1-.2-1.1-.3-.9v-.6l.4-.1.4.1.6.3h.4l.3-.1z" style="opacity:.46;fill-rule:evenodd;clip-rule:evenodd;fill:#001739"/><path d="M100 340.5v-.2h.3v.1c-.1 0-.2 0-.3.1m.1-1.3c-.5.2-.8.5-1.4.5-.4 0-.6-.2-1-.2-.7 0-.9.5-1.8.7-.9.3-.8.8-1.7 1.8-.3.4.3.7.4 1.2.1.4 0 .6 0 1s.1.7-.1 1c-.3.6-1.1.3-1.4.9-.3.5 0 .9-.1 1.5-.1.7-.1 1.1-.3 1.7-.2.7-.4 1-.7 1.7-.4.7-.5 1.2-1.2 1.8-.4.3-.7.3-1 .7-.6.7.3 2-.3 2.2-.9.4-1.3-.3-2.1.1-.9.4-1.8 1.2-2.6 2.3-.3.5-.1.4-.7 1.3-.2.3-.7-.6-1.1-1.1-.3-.4-.3-.7-.6-1.1-.2-.3-.5-.8-.7-.5-1.4 1.8-1.1 1.1-1.9 1.6-.4.2-1.1-.1-1.1.4 0 .3.4.3.5.7.1.5-.3.3-.4.5-.2.7.8.7 1.4 1.1.2.1.3.1.5.3s.2.4.4.6c.5.4 1-.2 1.6-.1.4.1.6.3.9.5s.4.4.7.5c.4.2.9-.2 1.1.2.1.2.1.2.1.5.1.6-1.3.3-2.1.6-.6.3-.9.5-1.4.9s-1 .4-1.3 1c-.2.3 0 .6-.3.9-.4.5-1 .2-1.6.3-.7.1-1.1.4-1.8.1-.3-.1-.4-.3-.7-.3-.5-.1-.8-.1-1.2.2-.6.4-.2 1.3-.8 1.6-.4.2-.7 0-1.1 0-.5 0-.8-.1-1.2 0-.5.2-.5.6-1 .9-.4.2-1.4.2-1 .5.7.5 1 .4 1 1 .7.4 1.3.9 1.8 1.2 0 .4-.2 1.4-.4 1.4.5.7.3 1.4.9 1.9.5.5 1.1.3 1.7.7.8.5 1.1 1 1.7 1.7l.2.2c0-.1 0-.4.3-.4 0 0 .2.4.3.5.6.5.7.6.4.8 0 .1.1.2.2.3.4.3.9 0 1.3.2.4.3.9.6 1.3 1.2.2.4.2.7.4 1.1s.4.6.7.9c.2.2.9.7 1.1.9.6.4.9.2 1.7.2 1.3.1 1.3.5 1.6 1.2.1.3 0 .5.1.7.2.3.4.3.6.6.3.3.5.4.7.7.3.3.2.7.5 1 .4.3.7 0 1.2 0 .3 0 .4-.1.7-.1.4 0 .8.4 1 .1.2-.2.1-.4.2-.6.2-.4.3-.7.7-.9 0-.2.1-.5 0-.7-.2-.6-1-.9-1-.9-.4-.6-.3-1.8-.8-2.2-.3-.2-.9.1-1.2 0-.5-.1-.6-.8-.8-1.2h-.5l.2-.5c.3 0 .9.1 1.2 0s.1-.6.5-.8l1.3.9c.2.4-.3.9-.2 1h.2c.5.2 1.6 1.4 1.3 1.2.2.1.3 1 0 1h.5c.7 2.3.4 1.9 2.3 2.9-.2-.4.2-.5.2-.5.1.3.4.9.5 1.2.2.2.2.2.4.1.4-.2-.4-.8-.1-1.2 1-1.6.6 1 1.1.8.6-.2.2-.9.3-1.5.1-.4-.2-.8.1-1.1s.7-.7 1.2-1c.3-.2.5-.4.9-.5s.6-.1 1-.2.6 0 .9-.2.3-.4.4-.7c.2-.7.4-1.7-.6-1.7-.3 0-.4-.4-.7-.7-.3-.2-.4.1-.8-.5-.3-.4.7-.5.9-.9.1-.3-.2-.7.1-.9.2-.2.5.2.7 0 .6-.5 1.1-.6 1.3-1.3.1-.3 0-.6.1-.9.3-1.4 2.1-2.2 2.5-2.8.3-.4.6.5 1 .9.6.6 1.5.6 1.6 1.4 0 .4 1 .4 1.5.9.3.3.4.5.6.8.3.4.6.6.7 1.1s0 .9-.2 1.3c-.2.3-.4.3-.6.6-.5.6.9.9 1.4 1.5.5.7.6 1.2 1.1 1.9.3.4.4.6.8 1s.6.7 1.2.9c.4.1.7.5 1 .2.2-.2-.1-.5.1-.8.3-.4.8-.2 1.3 0 .6.3.9.7 1.1 1.4.3.6.2 1 .2 1.7 0 1-.9.7-1 1.3 0 .4.2.6.2 1s0 .6-.1.9-.4.3-.5.6c-.2.6.4 1 .7 1.6.1.3.1.6.4.7.4.1.6-.2.9-.4s.5-.6.8-.5c.6.1 1.1-.1 1.8-.4.4-.2.5-.4.9-.5s.6-.2.9 0c.2.1.2.4.4.5.4.2.7-.1 1.1-.2s.9.1 1.1-.3c.2-.2.1-.4.1-.7.1-.5 0-.9.2-1.4.1-.2.1-.5.4-.6.5-.2.4.8.8 1 .3.1.5.1.8.1.4-.1.4-.6.8-.7s.6 0 .9.1h.1l.5.9 2 1.9.7.4.6.9.7.1.5.3.6.9-.1.6-1 1.2-.5.2-.8-.3-.7-.5-.4-.4-.4.1-2.2-.9-1.6.2.2.8-.4.7-.2.9-.2 1.6v.9l.2.9.7.9 1 .6 2.3.7-.4.9v.9l.3.8.7.6-.6.7-.2 1.4.1 1.4.1 2.3.1.8.2.8.5.8.8.5.5 1.3.8.6.9.5.9.9.3.7.1.8-.2.7-.7 1.2-.3.8-.6 1.3-.2-.5-.4.4-.6.2-.5.4 2.1 1.5.3 1.2-.3.5.5.3 1.3.1.6.4-.8 1-.4-.4-.6-.4-.4-.5-.4-.1-.8.3-1.8 1.4.1 1 .7.8.6.9.4.4.9.2.5.3.4.6-.3.6v1.1l.1.7.2.8.3.6.4.4.2.6-.2.9.4.6.8 2.6.1.8v1.3l-.2 1.2-.2.8-.1.8.4.8 1.4 1.9-.6.4-.5 1.2-.3.4-.8 2.8-1.3 1.3-.4.5-.3.7-.7 2.4.1 1.4-.5 1.3-1.5 2.6-.2.9v.8l.3 1.5.1.8-.1 2.2-.4.9-1.9 3.1-.6.7-.5.3-.5.7-.7 1.3-.3.8v.9l-.2 1.2-.5-.4-1.8.1-.7-.2-.1-.8-.5.3-.2.6.5.2.4.4.3.6v1.2l1 .2.5.9.4-.4.7-.9-.5 1.1.6 1.2 1.6 1.6-.9 2.2-.7.9h-.5l-.4-.3.3-.5.3-.6-.4-.3-.5.5-.5.5-1.3-.3h.6l-.7-.4-.5.4-1.5.3-1.3.8-.5-.1-.8-.9-.6-.3-2.3-.7-2.2.3-.6-.5.5-.2.4-.5.3-.6.1-.8-.4.5-.5.5-.6.2-.6-.3-.2.7v.7l.6-.4-.1.7.1.6-.2.7-2.6 1.7-.4.6-.4.4-.5-.3.3-.6.4-.3.4-.3.4-.9-.7-2.4-.3-.5-.7-.6-.4-.3-.8-1.5.1.8.1.7.5 1.4-.3 1.7.8.3-.5.4-.9 1.2-.5.4-.7.2h-1.4l-.7.2.2-.6.9-1.2-1.1-.4-.4.4.1.6-.6-.3-.6.4-.3.6-.6.3h-.6l-1.2-.3-6 .7-2.1 1.2-1.3.4-.3.5-.7.2-.3-.8-.5.2-.6.4-.4.7.4.4.5-.1.6.1 1.2.7-.2.6-1 .7-.1 1.5-.4.5-.6.3-.6.4-1.7-.2-.6.3-.3.7-.2.8-3.4-.6-.2-.9h-.5l-.1 1.6-.4.7-.5.5-.5.3h-.7l1.3 1-.3.5-.7.3-1.3.3-1.6.7-.5.6.6.7-.5.3-2.3.5-1.2.5-2 .2-1.2-.1-.4-.2.3-.6.6-.3-.2-.6.5-.1.4-.2.4-.3.1-.7-.5-.1.2-.7.4-.4-.3-.6-.5.6-.4-.3-.6-.1-1.3.1-.3-.6-.5.1-.6.3-.6.2-1.3-.1-.6.1-.6.4 1 .4 1.3.2.8.6-.6 1.6h1.5l-.2.7.4.3-.4.1-.4.3h1.1l-.5.8.1.7-.1.7-1 1.1-.3.5-.8.5-1.2.3-.4.3-.4.6-.2-.6-.4-.4-.9-.1.5.4v1.1l-.5.3-.2-1-.7-.4h-1.4l.3.5 1 .2h.6l-.3.5-.5.2-.5 1.2-.1.9.2 1.3-.4-.4-.5-1-.4-.4-.5-.1-1.5.4-3.7-.4.4.5.5.2 1.1.4-.4.3.6.3-.5.7.1 1-1.2-.1h-.5l-.5-.6h-1.2l-.6-.2-.4.2-.6-.3-.4.6-.3.9-.3.6-1.3.5-.4.4-.6-.7-.6-.5-.7-.1-.5.3-2.1.2-.7-.4-.4.3.4.3-.3.6-.4.4-.5.3-.5.1-1-.1.1.8-.7.3-.4.7-.6-.1-.7-.3-.2-.7-.9.5-.2.5-.5.2-.4.3-.4.2h-1l.7-.5.4-.9-.5.3H34l.3-.7.3-.4.8-.5.4-.4-.5-.1-1 .6-.4.6-.6.6-.3-1 .2-.5-.1-1-.5-.3-.6-.1-.4.2.3.6-.9.4-2.3.7-.2.6h-.8l-.9.7-.6-.5-.4-.6-.6.2-1.7 1.5.4.4-2.3.6-.9.8h-.4l.1-.9-.2-.6-.4-.6.7-.2.6-.4 1.1-1.1.6-.4 1.1-.3.7-.4.6-.4 1.4-1.6.6-.4 1.1-.5.6-.4-1.4-.1-6 3.1-1.9.1 1.3-.9.6-.3.5-.9 1.2-.4 3.8-2.1.4-.6 1-.1 1.2-.6 1.1-.3.9-.4.2-1.1.3-.7-.5-.2-.5.3-.5.2-.7-.6-.4-.3v-.8l-.5-.4-.6-.3.1.7v.9l.3.6-.6.1-.4.3-.9.9-.6.4-.7.2-2 .2-1.1.4-3.9.6-1.3.6-.5.7-.3.5-2 .6-1.1.5-.9-.3-1.4.2-.7.3-.5.5.1-.8.3-.7 2.1-.6.3-.6-.1-1-.4-.1h-.5l.4-.6.7-.2 1.3.1.7-.3 1.5-1.8H15l.5-.9 1-.8 1.1-.5h.7l-.3.8.5-.1.5-.3.4-.5.1-.8.4.3.5.1.9-.4-.6-.6.4-.3.8-.9.6-.3.4-.7.4-.3.8.1 1-.3 1.8-1 1-.7-2.2.3-3.3 1.2-.6.4-.4.7h-1l-.3.5-1.2.5.1-.8h-.4l-.4.5-.6.3-1.1.2-1.4 1.1-.7.3-.7-.4-.6.7-.8.6-.8.5-.8.2.2-.7-2.9-1.4 1.2-.4.3-1.2-.5-1.3-1.6-.3-.8 1.2-.7.5-1 .9-.9.4-.2-.6.4-1.5-.2-.6-.5-.1h-1v-.9l.2-.7-.4-.3 1-.1 2.6-.9.8-.1v-.8l-.4-.3-.3-.8-.3-.5-.6-.1.4-.5 1.1-.5-.2-.7.7-.3.9-.2.8-.6 2-.9 3-.6 1.3-.7.9-1.7.3 1.3.4.1.3-.5.7-3 1 .6 1 .1 2.1-.5-.4-.5 1.1-.7-6.2.4.4 1-.3.8-.5-1.1-.4-.2-.4-.1-.9-.1-4.2 1.1-1.1.2-.3-.5-.7-.2-.4.5-1.1-.9-.9.6.6.1.5.6-.8-.1-1.5-.5-.7.3.4.3h-.7l-1.2.6-1.1-.2-.8-.3-.2-.6v-2.1l.6-.8-.3-.4.4-.5.7-.4.6-.2-.4.8 1.1.7.4-.6-.1-.7.4-.4-.5-.3.7-1h.5l.6-.1.4-.4 1-1.3 3.2-.9.5.4-.3 2.2 2-.3.9-.5.8-.9.3-1.1-.7-1h1.1l.2.7.1.7v.8l.1.6.5.3.5.1.9.4 1.1.2h1.3l.4-.3.6-.8h.8l-.4.3.5.3 2.2-.3-.5-.5-.4-.1h-1l-1-.6-.5-.1-.5.4-.4-.6-.2-.9.4.4.6.2.5-.2-.6-.8.8-.3-.3-.9.1-2.5-.5-.5-1.6-.3-.9-.4-.6-.6.5-.5.6-.2 2.1-.2 3.1-1.4.4-.4.5-.7.5-.3h.8l.8.2.5.3-.1-.7-.4-.3-.5-.1-.5.1.2-.8-.2-.6.3-.6v-1l1.1-.9.6-.4 1.3.4 2.7.1.6.3.5-.6.4-.2 2.7.2.5-.2h2l1.1-.2.5-.2.4-.4.4-.3 3.8-1.2.6-.4.2.6.6.1.6-.1.5-.2.4-.7.6-.6 5.4-.7 1-.4h-.6l-2-.8-1-.2-2 .3-.5-.1-.4-.6.4-.4-.1-.8v-1.1l-.2-.6.6-1-.8.2-1 .5-.7.7-.1.7-1 1.9-2.8 3.7-.6.3-2.9.5-.8.9h-.8l-.7-.4.5-.4.7-.5.5-.6v-.7l-1 .6-2.3.7-1.6.1-.7-.1-.6-.3-.5-.7-1.1-.1-.4-.4-.2-1.1-1.1.4.5.3.3.7-2.4 1.1-1.4.3-.7.3-.3.6-.3.8-.5-.3-.8.6-5.6.5.6-.3 1.3-.9 1.6-.4 6.2-6.2.2-.7.4-.4.7-.3 1.3.1.6-.2.6-.3.2-1.1.2-.8-.2-.8.7-.5.3-.4.5-.9.2-.7.3-.6.1-.7 1.9-1.9.3-1-.6-.2-2.4.1-.8-.3.9-.9.4-.5.9-1.5.4-.9 1.7-3.2.7-.7.5-.9.4-1.1.5-.9.7-.3.7.4 1.5 1.4.7.3.6-.2.6-.4.7-.2.7.5.1-.8-.4-.5-1.4-.8 1.8-.3.5.2.9.8.6-.2-1.3-1.1 1.1.4.4-.4.6-.1.2.9.7.5.5.1-.3-1-.4-.7.4-.8.5-.6.7-.8-.8.3-3.1-.1-.4-.2.5-.4 1.4-.4.6-.4h-.9l.3-.6.8-.2.4-.6-2.5-.4-.6.1-1.1.5-10.1.8-1 .5-.5.4-.7.2h-1.3l-.7-.3-.4-.5-.3-.5-.4-.5.6-.9-.2-.6h-.5l-.3.9-.1 1.1-.4.7-.5.1-.5-1 .6-1.1-.3-2.4.7-.4.7.1.4-.8-1.2-1.2.3-.4 1.2-.7-1.1-.1-.6.1-.5.3.4.6.1.9-.3.8-.6.2-.5-.6.1-1 .1-1.4-.5-.1-.4.6-.6.6-.3.8-.7 1.3-.5.6-1.5.7H20l-.5-.6-.6-.5-1.4.3-.4-.5.2-.7.2-1 .5-.3h.4l.5-.2 1.3-.9.5-.8-1.1-.4.7-.7-.8.2-.7.9-.4.3-.5-.1v-1.1l.5-.9-.4.5h-.6l-.5-.2-.4.8.1 1.1-.7.2-.5.3h-1.2l-.8-.3-.3-.4-.4-.8-.4-.1-1.2.2-.7-.1-.4-.5-.5.4h-.6l.3-.8.3-.6.5-.3.6-.1 1.2.2.5-.1.5-.9-.7-.3-.4-.8.7.1.8.3.6.1.3-.6-.6.1-1.2-.2-1.2-.5-.7-1.1-.2-.6-.6-.9-.9.2-.7-.2.7-.6h.7l.8.2.7-.2-.2-.9h1.4l1.6.6.7.7.8-.9-1.9-1.3-.5-.6 1.2-.3 2.4.2.9-.2 1.1-.7.7.1.7.5 1.5.3 2.4-.2-.5-.3-2.2.2-1.4-.5-2.5-1.6-.4-2.3.2-1.1.3-.9.2-.8v-1.2l1.2-.2.8-.3 1.1-.2.5-.4 1 .6 5.8-1.4-.5-.1-1.1-.8.5-.3-.1-.8.3-.5.8-.9-.6-.3.4-.5v-.9l-.4.3-.9-.3h-4.4l-3.1 1.7-1.7.4-1-1.1.4-.3.2-1.5.5-.4v-1.1l-.2-.7 1.8-.3.7.5.8.4.1 1.2.6.1-.1-1-.2-1-.5-.7-.4-.1.2.7-.6-.5-.3-1.6-.3-.5-.7-.5-.4-.7-.1-.8.5-1 .4-.1.4-.5-.4-.2.3-.6.2-.6.9-.8-.7-.3-.7.7-.3.7-.9 1.1-.9.2-.8-.7-.6-1.4h.6l1.4-.4.6-.3-.9-.7-.4-1 .6.3-.4-.6-1.1-1.2.8.3.5-.7-1.6-1.4-.7-.3-.5.6.3 1-.5.2-.6-.1.4 1.1h-.8l-.7.7.5.5-.2 1-.6.4.4.3.5.9-.5.2h-.6l-.5-.2-.3-.5-.1-1 .2-.6.7-1.5.2-.6.4-1.4.4-.3.4-.7-1.4-.2-.4-.5h.6l.3-.5.2-.7.6-.9 1.6-1.3.4-.2.2.5.2.6.4.3.5 1.4.5.1.7.1.5.2.5.1-.7 1.3-.7.6-.8-.1-.8-.7-.2 1 .5.3.7.1.6.3.5.4.4-.4.4-.6.5-.3-.4-.6.2-.9.5-.7.5-.3.7.2 1.1.8.7.2-.4-.7-.6-.7.6-.2.7.1-.6-.3-1.6-.4-.3-.5-.1-1.2 1.8-.5.7.2 1.2.8.6.1 5.7.4.6-.3h.6l.7.6 2.5.4.7-.3.6-.6.7-.2 1.4.7.5.3.4 1.2.5-.1.6.1v.8l-.2.6.7.7-.5.9 1.5 1.4.4.6.2.8.2 1v-1l.1-.8v-.7l-.2-.8.7-.3.7-.7.5-1.1.2-1.4.3-1 1-.1 1.9.4.5-.3.4.3.5.3.5.2.7.5.5.1h1.5l.7-.2.6-.5.9.7 1.9-.4 1 .9.3 1.1.9.4.4.4.6 1 .4-.3.5-.1 1-.3-.4-.2-.6-.2-.5-.3-.4-1-.5-.3-.6-.2h-.5l.2-.7.6-.8.7.3.4.1.5-.5 2.2.4-.5-.6-.6-.5-.6-.3-.6-.1-.6.1-.3-.6.5-.4.7.6.4-.9-.7-.4-.7-.2-3.2-.2.1-1 .7-.6.9-.3 3.6-2.6.5-.2.3-.6v-1.1l.3-.8.2.6.3.7.9-.6 1-.5 2.9-.6 1.4-1 1-.6-1-.1-.5-.2-.4-.5 1.7-1.4-.1-1 1.4-1.3-.1-1.3.6.5.6.3.4-1.7-.1-.8-.6.6-.6.3-2.1.4-1.1.9h-.6l.3-.5-.2-.9-.5-.2-.5.2-.8 1-.8.4-1.5 1.6-.4.4-.4.3-.4-.2.8-.9.4-.4.6-.2.4-.4-.1-.8-.4-.5-.7.5-.3-1.2-.5.7-.3 1-.5.1-.3-.4-.1-.8h-.5l-.5.3-1.1.2-.7.6-.6-.4h-2.4l-.5-.4v-.8l-2.6-1-.4-.4.3-.7-.4-.3-.1-.7.4-.1.5-.1.6-.6.1-.7.4-.4 2.2-1.6.8-.3 3.1.1 1.6.6.8-.3-2.2-.5-.6-.6.5-.2 1.8.1.4.6.5.6.6.3.6-.3-1.6-1.7-1.2-.4-1.1-.8-.6-.6.5-.1.7-.3.8-.9.6.6.7.1 1.5-.3 1.7.7.6-.4-.5-.1-.7-.3-.5-.6v-.9l.5-.5 1.2.2.5-.1-.4-.4-.4-1-.4-.2-.9.2-.1.9-.9-.1-.7-.8-.6-1.1-.4-1 1.1.4.7.5.4-.1.4-.2.8-.5-.9-.4-.7-.7-1.2-1.9.6-.4.7.4.2-.7.4-.9.7-.2.6-1.3.5.1.1 1.2h.5l.5-1.3-.4-1.6v-1.4l.4-.4.5-1.7.3-.6h.5l1.8.8.6-.1 1.3-.2-.4.7.1.8.4-.3.9-1.3 1.9-1.2.6-.2.4-.4.3-.9.4-.8.7-.1.8.6-.3.6-1.4 1.4 1.3-.7.4.4.5-.1.8-.4.4.8.1.9.5-.4.3.4-.6.6-.4.4h.6l.6.1.3-.4.3-1.6-.7-1-.2-1.1.5-.7.8-.6 1-.5-.8 2.9.3.6.5.2.6-.4.4.2.6.5.6.5.3.7.3.7.1.8v1l.5-1.4.4-.7-.2-.9-.3-.8-.2-.9-.1-.7-.3-.6-.6.2.1.8.2.8.2.6-.7-.4-.5-.7-.9-.3-.4-.4.1-.7.8-2.1 1.1.2.5-.2 1.5-1.1.5.2.3.5.2.5.4.6-.1.9-.1.8.1.8.4.4.9.4v.6l.2.7.7.9.4.4.1.9-.3 1.6-.5.1-.4.3-.6.7-1.7 1.5 1.9-.4.6.3-.3 1.1-.4.4-1.5 1.1-1 1.5-.4.8.6-.2.6-.4 3.3-2.9.3-.6.6-.3.7-.2.5-.2.4-.7.2-.9-.1-.7-.6-.3v-.7l.3-.8-.2-1.4-1.2-2-.7-.6-.4-.7-.1-1.1.7-.6.3-.9.1-1.1-.3-.9.5.1.4.2.4.1.5-.4-.2-.7.6.5.7.4h.7l1.2-1.3.6-.2.6.3.5 1h-.9l.6.4.7.3h.7l.6-.4-2-1.6-.9-1.2-.1-1.3-.9-.4-.6-.7.5-.3.6.1 1.1.6 2.1.8.5.1 1.2.7.4.4 1.6 2.5.5.4 1.5.7 1.2.2 1.4.6.7.5.7-.3.4.8-.1 1.1-.9.6-.9.2-1 .4-1 .6-1.1 1.1-1 .6-.8.2-.4.4-1.4 1.9-.5.9zm-40.3 3 .2-.1.2.1.2.2.5.2.4.3.3.5.1.9-1.4.4-.7-.1-.5-.4v-.2l.1-.2v-.1l-.1-.4.5-.3.2-.1-.1-.1-.1-.1v-.1zM12 395.5l.6-.4 2.7.1.6.3.6 1.4h-.6l.1.4v.4l-.1.4-.2.3v.4l.4-.2.4-.1.3.1.3.3v.4l-.3.4-.2.8-.1.9.1.7-.7.6-.6-.3-.6-.7-.7-.7h-.4l-.4.1-.3-.1-.1-.5.1-.8.1-.6v-.5l-.3-.5-.6-.2-2.3.5-.9-.1-1.5-.6h-.8v-.4h.8l.7-.2.5-.5.4-1 .2.3.3.1.3-.1.3-.3.7.8.8-.2zM24 434l.4-.1.4.1.3.3.8 1.3-.6.9-1.1.3-.6-.6-.1-.7-.2-.4v-.3l.3-.5zm-3.2 6.9h.7l.8.6h.4l.8-.2.6.1.8.3.2.4-.3.4v.4l.7.4.1-.1.1.1v.4l-.6.2-3.7-1.7-1-.7zM3.4 503.1l.3-.3h.6l.2.1.2.2h.6l.1.3-.2.4-.6.4-1.2.6-1.1.1-.3.3-.6.1-.1-.4.5-.7zm14.9 14.3.7-.1 1.1.2h.2l.3-.1.2.2-.3.4-.2.1-2.4.8-.3-.1-.5-.3.1-.5.4-.4z" style="opacity:.2;fill-rule:evenodd;clip-rule:evenodd;fill:#001739"/><path d="m130.7 326.9-.2.7 2.7-.1c-.1.3 0 1.1-.2 2 .2-.1.2-.3.5-.3.7-2.8.3-2.4-2.8-2.3M73 373.8c.5.7.3 1.4.9 1.9.5.5 1.1.3 1.7.7.8.5 1.1 1 1.7 1.7l.2.2c0-.1 0-.4.3-.4 0 0 .2.4.3.5.6.5.7.6.4.8 0 .1.1.2.2.3.4.3.9 0 1.3.2.4.3.9.6 1.3 1.2.2.4.2.7.4 1.1s.4.6.7.9c.2.2.9.7 1.1.9.6.4.9.2 1.7.2 1.3.1 1.3.5 1.6 1.2.1.3 0 .5.1.7.2.3.4.3.6.6.3.3.5.4.7.7.3.3.2.7.5 1 .4.3.7 0 1.2 0 .3 0 .4-.1.7-.1.4 0 .8.4 1 .1.2-.2.1-.4.2-.6.2-.4.3-.7.7-.9 0-.2.1-.5 0-.7-.2-.6-1-.9-1-.9-.4-.6-.3-1.8-.8-2.2-.3-.2-.9.1-1.2 0-.5-.1-.6-.8-.8-1.2h-.5l.2-.5c.3 0 .9.1 1.2 0s.1-.6.5-.8l1.3.9c.2.4-.3.9-.2 1h.2c.5.2 1.6 1.4 1.3 1.2.2.1.3 1 0 1h.5c.7 2.3.4 1.9 2.3 2.9-.2-.4.2-.5.2-.5.1.3.4.9.5 1.2.2.2.2.2.4.1.4-.2-.4-.8-.1-1.2 1-1.6.6 1 1.1.8.6-.2.2-.9.3-1.5.1-.4-.2-.8.1-1.1s.7-.7 1.2-1c.3-.2.5-.4.9-.5s.6-.1 1-.2.6 0 .9-.2.3-.4.4-.7c.2-.7.4-1.7-.6-1.7-.3 0-.4-.4-.7-.7-.3-.2-.4.1-.8-.5-.3-.4.7-.5.9-.9.1-.3-.2-.7.1-.9.2-.2.5.2.7 0 .6-.5 1.1-.6 1.3-1.3.1-.3 0-.6.1-.9.3-1.4 2.1-2.2 2.5-2.8.3-.4.6.5 1 .9.6.6 1.5.6 1.6 1.4 0 .4 1 .4 1.5.9.3.3.4.5.6.8.3.4.6.6.7 1.1s0 .9-.2 1.3c-.2.3-.4.3-.6.6-.5.6.9.9 1.4 1.5.5.7.6 1.2 1.1 1.9.3.4.4.6.8 1s.6.7 1.2.9c.4.1.7.5 1 .2.2-.2-.1-.5.1-.8.3-.4.8-.2 1.3 0 .6.3.9.7 1.1 1.4.3.6.2 1 .2 1.7 0 1-.9.7-1 1.3 0 .4.2.6.2 1s0 .6-.1.9-.4.3-.5.6c-.2.6.4 1 .7 1.6.1.3.1.6.4.7.4.1.6-.2.9-.4s.5-.6.8-.5c.6.1 1.1-.1 1.8-.4.4-.2.5-.4.9-.5s.6-.2.9 0c.2.1.2.4.4.5.4.2.7-.1 1.1-.2s.9.1 1.1-.3c.2-.2.1-.4.1-.7.1-.5 0-.9.2-1.4.1-.2.1-.5.4-.6.5-.2.4.8.8 1 .3.1.5.1.8.1.4-.1.4-.6.8-.7s.6 0 .9.1c.4.1.7.4 1 .6.5.2 1.1.1 1.5.1.4.8 1 1.3 1.5 1.9.6-.1 1.2-.4 1.7-.3 1.1.3 0 1.7.8 2.2.2.2.8.1 1 .2.3-.2.7-.3 1-.5.2-.2 0-.6.2-.7.5-.4 1-.2 1.5-.5.4-.3.7-1.2 1.2-1.5.3-.3.8-.2 1-.5.9-1.7.3-6 1.5-7.2h.5c.1-.3 0-.7.2-.7.2-.1 4.4 0 4.7.1.1 0 .4.7.5.7.1-.1.6-.2.7-.3 0-.1-.1-.7 0-.7.2-.2.7 0 1 0 0 0 1.1-1 1.2-1 .4-.5.3-1.1.7-1.7l.5-.3c.1-.3-.1-.7 0-1v-1s-.4-.7-.5-.7c-.2 0 .5-.5.5-.5.1.3.1.8.3 1 1 .9.9.3 1.2.4.1-.7.1-1.1.2-2 .2-.1.7-.1.7-.3.2-1-.6-1.7-.3-2.9.1-.3.8-.8.9-1 .2-.6.1-1 .2-1.5-.9-.8-1.8-1.7-1.6-3.6 0-.4.3-.2.2-.7-.1-.2-.9-.9-1-1.2-.4-.7-.2-1.6-.6-2.4-.3-.6-.9-.8-1.3-1.2-.3-.3-.2-.8-.5-1s-.7-.1-1-.2c-.6.4-.5 1-1.7 1l-.8-.5c-1.5-.2-4.3.8-4.9 1.4l-.9 1.8c-.3-.2-.6-.5-1-.7 0-.5-.3-.7-.3-1 0-.5 2.2-3.1 2.6-3.3.4-.3.8 0 1.2-.3.2-.1.3-.6.5-.8 1.1-.6 2.8-.7 3.1-1.8.2-.7-.2-1.3-.3-1.7 0 0 .3-1 .2-1.5l-.5-.2c-.9-1.3-.6-1.2-2.5-1.6v.5l.3.2c.5.4 1.3.8 1.5 1.4v.5c-.2 0 .3.7-.2.5-.1 0 0-.7 0-.7-.5-.3-1.7-.9-2-1.4-.2-.3.1-.9 0-1.2-.1-.4-.8-1.5-1.1-1.9-.5-.6-1.4-.9-1.8-1.7-.3-.5-.2-1.3-.6-1.7-.2-.2-1.9-.9-2.3-1.1.1-.9-.1-1.2.2-2l.5-.5c0-.3-.3-1.5-.3-1.5-.6-.1-1.5 0-2.7-.2-.1-.4.2-.4-.3-.5 1.1-4 1.8-5.7-1.7-7.8-.4-.2-.7-1.1-1.7-.7 0 0-.4.7-.5.8-2.4.8-2.1-.8-3.2-1.1-.3-.1-.7.1-1 0-.1 0-.4-.7-.5-.7-1.2-.2-1.5.6-2.4.6-1 0-1.4-.9-1.5-.9h-.2c-.4 0-1.5.8-1.9 1v.5c-.5.3-2.5.9-3.2.8 0 0-.6-.4-1-.2 0 0-.4.7-.5.8-.5.3-1 .2-1.5.5-.4.3-.4 1.1-.9 1.3-.5.1-2.1-.4-2.5-.4-.5 0-1 .2-1.5.1 0 0-.4-.2-.5-.2-.4-.2-.7-.7-1-.9s-.7-.3-1-.5c.2 1.5.3 2-.1 3.2l-.5.5c-.1.6.3.9.3 1.2h-1c-.3.6 0 1.6-.4 2.2-.6.9-2.8.8-3.7.9.2 0 .2-.7 0-.7-1.3-.3-2.6.3-3.4.6.1-.6.2-1 .3-1.4-.6.3-.9.6-1.6.6-.4 0-.6-.2-1-.2-.7 0-.9.5-1.8.7-.9.3-.8.8-1.7 1.8-.3.4.3.7.4 1.2.1.4 0 .6 0 1s.1.7-.1 1c-.3.6-1.1.3-1.4.9-.3.5 0 .9-.1 1.5-.1.7-.1 1.1-.3 1.7-.2.7-.4 1-.7 1.7-.4.7-.5 1.2-1.2 1.8-.4.3-.7.3-1 .7-.6.7.3 2-.3 2.2-.9.4-1.3-.3-2.1.1-.9.4-1.8 1.2-2.6 2.3-.3.5-.1.4-.7 1.3-.2.3-.7-.6-1.1-1.1-.3-.4-.3-.7-.6-1.1-.2-.3-.5-.8-.7-.5-1.4 1.8-1.1 1.1-1.9 1.6-.4.2-1.1-.1-1.1.4 0 .3.4.3.5.7.1.5-.3.3-.4.5-.2.7.8.7 1.4 1.1.2.1.3.1.5.3s.2.4.4.6c.5.4 1-.2 1.6-.1.4.1.6.3.9.5s.4.4.7.5c.4.2.9-.2 1.1.2.1.2.1.2.1.5.1.6-1.3.3-2.1.6-.6.3-.9.5-1.4.9s-1 .4-1.3 1c-.2.3 0 .6-.3.9-.4.5-1 .2-1.6.3-.7.1-1.1.4-1.8.1-.3-.1-.4-.3-.7-.3-.5-.1-.8-.1-1.2.2-.6.4-.2 1.3-.8 1.6-.4.2-.7 0-1.1 0-.5 0-.8-.1-1.2 0-.5.2-.5.6-1 .9-.4.2-1.4.2-1 .5.7.5 1 .4 1 1 .7.4 1.3.9 1.8 1.2 0 .7-.2 1.6-.3 1.6m27.2-33.2c.7-.2 0 .5 0 .5-.4.1-.2-.4 0-.5m49.6 25.3c.6.3 3.8 2.5 4 3.1.3.9-.2 2.4-.1 3 0 .6.5.7.3 1.5-.1.2-.5.2-.7.3 0 1.4-.1 1.4.3 2.7-.5-.1-.4.2-.7.3v-.5c-1 .3-1.4.2-2.2.6l-.2.5c-.5.2-.8.1-1.2.3.1-.1-.2-.7 0-.7.6-.4 1.2-.2 1.4-.8.1-.2.6-3.5.6-3.5-.1-.4-.7-.6-.8-1-.9-2.6.8-2.3-1.8-3.6v-.5h.5c.1-.9.3-1.2.6-1.7M82 367.5l.5.5c.7 0 .5-.4-.5-.5m-.5-.5c.8-.3 1.2-.1 2-.1v.5c.1 0 .7-.2 1-.3l-.2.5c.2-.6.5.5.5.5-.6.1-.4.2-.7.5 2 1.4.1.9.6 2.2.1.2 1 .7 1 .9v.2c.4.2.7-.1 1 .2 0 0-.2.6-.2.7.8 0 .5.7 0 .5v.5c.3 0 .8 0 1 .2.3.4-.2.2.3.5l-.2 1.5h-.5c-.2-.6 0-1-.3-1.5-.1-.2-.6-.1-.7-.2-.2-.2-.1-.8-.3-1s-.6 0-.7-.2c-.3-.4-.2-1-.5-1.2-.5-.3-1.2-.1-1.7-.4v-.5c-.1-.2-1.3-.6-1.5-.7v-.2c-1.4-.5-4.2-.1-5.4-.1.2 0 1.4-.3 2-.3-.1-.1.2-.4.2-.5-.7.5-.4-.6-.5-.7.7-.1 2.3 0 3.2-.4-.3.2-.2-.8.6-1.1m42.1-11c.1.1.8.2 1 .2.1.6 0 1.3.1 2 2 .5 3.3.2 5.4-.4-.4 0 1.2-.5.7-.3.1.1.9.4 1 .5 0 .1-.1.6 0 .7-.6.9-1.8 1.7-2.1 2.8-.1.4.1.8 0 1.2-.1.3-.5 1-.7 1.5.5-.3.3-.4.7-.8.1.1.8 0 1 0 .1.6.3 1.7.3 2.7-.5 0 0 .5-.7.5-.1 0 .2-1.2.2-1.2-.2 0-.8.1-1 0 0 .2.1.6 0 .7 0 0-.4.1-.5.3l-.5.3c0-.2.5.5.5.5h-.2l-.2.7h-.5c-.1.7.3 1 .5 1.5-.7.2-1.4.6-1.7.6-2.3-.2-.4-.9-1-1.2h-.5c.3.1-2.8.1-2.5.1-.5-.1-1 .2-1.5.1-.3-.1-1.2-1.2-1.5-1.4.2-.6.3-1.5.7-2h.5c.2-.1 1.8-1.8 1.9-2 .3-.8-.8-4.4-.2-4.4 0-.1-.3-1.1-.3-.7v-.7s.1-.8.2-1c.2-.4.9-.7.9-.8M99 342.1c.4-.2.1.7 0 .7-.6.5-.2-.6 0-.7" style="opacity:.46;fill-rule:evenodd;clip-rule:evenodd;fill:#001739"/></svg>